G04*
G04 #@! TF.GenerationSoftware,Altium Limited,Altium Designer,21.7.1 (17)*
G04*
G04 Layer_Physical_Order=2*
G04 Layer_Color=16711680*
%FSLAX24Y24*%
%MOIN*%
G70*
G04*
G04 #@! TF.SameCoordinates,156F93F5-282F-4AE9-AA7B-D440BB6AA61E*
G04*
G04*
G04 #@! TF.FilePolarity,Positive*
G04*
G01*
G75*
%ADD16C,0.0197*%
%ADD45C,0.0551*%
%ADD46R,0.0551X0.0551*%
%ADD47C,0.1181*%
%ADD48R,0.0598X0.0598*%
%ADD49C,0.0598*%
%ADD50R,0.0594X0.0594*%
%ADD51C,0.0594*%
%ADD52O,0.0669X0.0472*%
%ADD53O,0.0551X0.0394*%
%ADD54C,0.0500*%
%ADD55C,0.1181*%
G36*
X19780Y7141D02*
X15663D01*
Y9190D01*
X15696Y9209D01*
X15752Y9265D01*
X15791Y9333D01*
X15812Y9409D01*
Y9488D01*
X15791Y9565D01*
X15752Y9633D01*
X15696Y9689D01*
X15628Y9728D01*
X15551Y9749D01*
X15472D01*
X15396Y9728D01*
X15328Y9689D01*
X15272Y9633D01*
X15232Y9565D01*
X15212Y9488D01*
Y9409D01*
X15232Y9333D01*
X15272Y9265D01*
X15328Y9209D01*
X15360Y9190D01*
Y7141D01*
X102D01*
Y14764D01*
X102Y14764D01*
Y15056D01*
X19780D01*
X19780Y7141D01*
D02*
G37*
G36*
Y102D02*
X157Y102D01*
X102D01*
Y7087D01*
X15360D01*
Y5708D01*
X14705Y5053D01*
X14636Y5071D01*
X14545D01*
X14457Y5048D01*
X14378Y5002D01*
X14313Y4937D01*
X14267Y4858D01*
X14244Y4770D01*
Y4679D01*
X14267Y4591D01*
X14313Y4511D01*
X14378Y4447D01*
X14457Y4401D01*
X14545Y4378D01*
X14636D01*
X14724Y4401D01*
X14804Y4447D01*
X14868Y4511D01*
X14914Y4591D01*
X14937Y4679D01*
Y4770D01*
X14919Y4839D01*
X15619Y5539D01*
X15619Y5539D01*
X15652Y5588D01*
X15663Y5646D01*
Y7087D01*
X19780D01*
Y102D01*
D02*
G37*
%LPC*%
G36*
X18961Y14814D02*
X18835D01*
X18711Y14789D01*
X18594Y14741D01*
X18489Y14671D01*
X18400Y14582D01*
X18330Y14477D01*
X18282Y14360D01*
X18257Y14236D01*
Y14110D01*
X18282Y13986D01*
X18330Y13870D01*
X18400Y13765D01*
X18489Y13676D01*
X18594Y13606D01*
X18711Y13557D01*
X18835Y13533D01*
X18961D01*
X19084Y13557D01*
X19201Y13606D01*
X19306Y13676D01*
X19395Y13765D01*
X19465Y13870D01*
X19514Y13986D01*
X19538Y14110D01*
Y14236D01*
X19514Y14360D01*
X19465Y14477D01*
X19395Y14582D01*
X19306Y14671D01*
X19201Y14741D01*
X19084Y14789D01*
X18961Y14814D01*
D02*
G37*
G36*
X1047D02*
X921D01*
X797Y14789D01*
X681Y14741D01*
X576Y14671D01*
X487Y14582D01*
X417Y14477D01*
X368Y14360D01*
X344Y14236D01*
Y14110D01*
X368Y13986D01*
X417Y13870D01*
X487Y13765D01*
X576Y13676D01*
X681Y13606D01*
X797Y13557D01*
X921Y13533D01*
X1047D01*
X1171Y13557D01*
X1288Y13606D01*
X1393Y13676D01*
X1482Y13765D01*
X1552Y13870D01*
X1600Y13986D01*
X1625Y14110D01*
Y14236D01*
X1600Y14360D01*
X1552Y14477D01*
X1482Y14582D01*
X1393Y14671D01*
X1288Y14741D01*
X1171Y14789D01*
X1047Y14814D01*
D02*
G37*
G36*
X12599Y12702D02*
X12520D01*
X12443Y12681D01*
X12375Y12642D01*
X12319Y12586D01*
X12279Y12517D01*
X12259Y12441D01*
Y12362D01*
X12279Y12286D01*
X12319Y12217D01*
X12375Y12162D01*
X12443Y12122D01*
X12520Y12102D01*
X12599D01*
X12675Y12122D01*
X12743Y12162D01*
X12799Y12217D01*
X12839Y12286D01*
X12859Y12362D01*
Y12441D01*
X12839Y12517D01*
X12799Y12586D01*
X12743Y12642D01*
X12675Y12681D01*
X12599Y12702D01*
D02*
G37*
G36*
X11822Y11963D02*
Y11664D01*
X12121D01*
X12098Y11749D01*
X12052Y11829D01*
X11987Y11894D01*
X11907Y11940D01*
X11822Y11963D01*
D02*
G37*
G36*
X11722D02*
X11637Y11940D01*
X11557Y11894D01*
X11492Y11829D01*
X11446Y11749D01*
X11423Y11664D01*
X11722D01*
Y11963D01*
D02*
G37*
G36*
X12121Y11564D02*
X11822D01*
Y11265D01*
X11907Y11288D01*
X11987Y11334D01*
X12052Y11399D01*
X12098Y11479D01*
X12121Y11564D01*
D02*
G37*
G36*
X11722D02*
X11423D01*
X11446Y11479D01*
X11492Y11399D01*
X11557Y11334D01*
X11637Y11288D01*
X11722Y11265D01*
Y11564D01*
D02*
G37*
G36*
X8554Y11546D02*
X7903D01*
Y10895D01*
X8554D01*
Y11546D01*
D02*
G37*
G36*
X3736Y10783D02*
X3387D01*
Y10434D01*
X3736D01*
Y10783D01*
D02*
G37*
G36*
X3287D02*
X2937D01*
Y10434D01*
X3287D01*
Y10783D01*
D02*
G37*
G36*
X4564Y10733D02*
X4472D01*
X4383Y10709D01*
X4303Y10663D01*
X4238Y10598D01*
X4192Y10519D01*
X4169Y10430D01*
Y10338D01*
X4192Y10249D01*
X4238Y10169D01*
X4303Y10104D01*
X4383Y10058D01*
X4472Y10035D01*
X4564D01*
X4652Y10058D01*
X4732Y10104D01*
X4797Y10169D01*
X4843Y10249D01*
X4867Y10338D01*
Y10430D01*
X4843Y10519D01*
X4797Y10598D01*
X4732Y10663D01*
X4652Y10709D01*
X4564Y10733D01*
D02*
G37*
G36*
X3736Y10334D02*
X3387D01*
Y9985D01*
X3736D01*
Y10334D01*
D02*
G37*
G36*
X3287D02*
X2937D01*
Y9985D01*
X3287D01*
Y10334D01*
D02*
G37*
G36*
X1707Y11024D02*
X1581D01*
X1457Y11000D01*
X1340Y10952D01*
X1235Y10881D01*
X1146Y10792D01*
X1076Y10687D01*
X1028Y10571D01*
X1003Y10447D01*
Y10321D01*
X1028Y10197D01*
X1076Y10080D01*
X1146Y9976D01*
X1235Y9886D01*
X1340Y9816D01*
X1457Y9768D01*
X1581Y9743D01*
X1707D01*
X1831Y9768D01*
X1947Y9816D01*
X2052Y9886D01*
X2141Y9976D01*
X2211Y10080D01*
X2260Y10197D01*
X2284Y10321D01*
Y10447D01*
X2260Y10571D01*
X2211Y10687D01*
X2141Y10792D01*
X2052Y10881D01*
X1947Y10952D01*
X1831Y11000D01*
X1707Y11024D01*
D02*
G37*
G36*
X8278Y9627D02*
Y9302D01*
X8604D01*
X8578Y9397D01*
X8529Y9483D01*
X8459Y9553D01*
X8373Y9602D01*
X8278Y9627D01*
D02*
G37*
G36*
X8178D02*
X8083Y9602D01*
X7998Y9553D01*
X7928Y9483D01*
X7878Y9397D01*
X7853Y9302D01*
X8178D01*
Y9627D01*
D02*
G37*
G36*
X12609Y9404D02*
Y9105D01*
X12908D01*
X12885Y9190D01*
X12839Y9270D01*
X12774Y9335D01*
X12694Y9381D01*
X12609Y9404D01*
D02*
G37*
G36*
X12509D02*
X12424Y9381D01*
X12344Y9335D01*
X12279Y9270D01*
X12233Y9190D01*
X12210Y9105D01*
X12509D01*
Y9404D01*
D02*
G37*
G36*
X11625D02*
Y9105D01*
X11924D01*
X11901Y9190D01*
X11855Y9270D01*
X11790Y9335D01*
X11710Y9381D01*
X11625Y9404D01*
D02*
G37*
G36*
X11525D02*
X11440Y9381D01*
X11360Y9335D01*
X11295Y9270D01*
X11249Y9190D01*
X11226Y9105D01*
X11525D01*
Y9404D01*
D02*
G37*
G36*
X10641D02*
Y9105D01*
X10940D01*
X10917Y9190D01*
X10871Y9270D01*
X10805Y9335D01*
X10726Y9381D01*
X10641Y9404D01*
D02*
G37*
G36*
X10541D02*
X10455Y9381D01*
X10376Y9335D01*
X10310Y9270D01*
X10264Y9190D01*
X10242Y9105D01*
X10541D01*
Y9404D01*
D02*
G37*
G36*
X8604Y9202D02*
X8278D01*
Y8877D01*
X8373Y8902D01*
X8459Y8951D01*
X8529Y9021D01*
X8578Y9107D01*
X8604Y9202D01*
D02*
G37*
G36*
X8178D02*
X7853D01*
X7878Y9107D01*
X7928Y9021D01*
X7998Y8951D01*
X8083Y8902D01*
X8178Y8877D01*
Y9202D01*
D02*
G37*
G36*
X12908Y9005D02*
X12609D01*
Y8706D01*
X12694Y8729D01*
X12774Y8775D01*
X12839Y8840D01*
X12885Y8920D01*
X12908Y9005D01*
D02*
G37*
G36*
X12509D02*
X12210D01*
X12233Y8920D01*
X12279Y8840D01*
X12344Y8775D01*
X12424Y8729D01*
X12509Y8706D01*
Y9005D01*
D02*
G37*
G36*
X11924D02*
X11625D01*
Y8706D01*
X11710Y8729D01*
X11790Y8775D01*
X11855Y8840D01*
X11901Y8920D01*
X11924Y9005D01*
D02*
G37*
G36*
X11525D02*
X11226D01*
X11249Y8920D01*
X11295Y8840D01*
X11360Y8775D01*
X11440Y8729D01*
X11525Y8706D01*
Y9005D01*
D02*
G37*
G36*
X10940D02*
X10641D01*
Y8706D01*
X10726Y8729D01*
X10805Y8775D01*
X10871Y8840D01*
X10917Y8920D01*
X10940Y9005D01*
D02*
G37*
G36*
X10541D02*
X10242D01*
X10264Y8920D01*
X10310Y8840D01*
X10376Y8775D01*
X10455Y8729D01*
X10541Y8706D01*
Y9005D01*
D02*
G37*
G36*
X5542Y6625D02*
X4891D01*
Y5974D01*
X5542D01*
Y6625D01*
D02*
G37*
G36*
X9643Y5121D02*
X9641D01*
Y4774D01*
X9987D01*
Y4777D01*
X9960Y4878D01*
X9908Y4968D01*
X9834Y5042D01*
X9744Y5094D01*
X9643Y5121D01*
D02*
G37*
G36*
X9541D02*
X9538D01*
X9437Y5094D01*
X9347Y5042D01*
X9273Y4968D01*
X9221Y4878D01*
X9194Y4777D01*
Y4774D01*
X9541D01*
Y5121D01*
D02*
G37*
G36*
X768Y5049D02*
X571D01*
X496Y5039D01*
X427Y5010D01*
X367Y4964D01*
X321Y4905D01*
X292Y4835D01*
X282Y4760D01*
X292Y4685D01*
X321Y4616D01*
X367Y4556D01*
X427Y4510D01*
X496Y4481D01*
X571Y4471D01*
X768D01*
X842Y4481D01*
X912Y4510D01*
X972Y4556D01*
X1018Y4616D01*
X1047Y4685D01*
X1056Y4760D01*
X1047Y4835D01*
X1018Y4905D01*
X972Y4964D01*
X912Y5010D01*
X842Y5039D01*
X768Y5049D01*
D02*
G37*
G36*
X1941Y4894D02*
X1783D01*
X1687Y4875D01*
X1605Y4820D01*
X1551Y4738D01*
X1532Y4642D01*
X1551Y4546D01*
X1605Y4464D01*
X1687Y4410D01*
X1783Y4390D01*
X1941D01*
X2037Y4410D01*
X2119Y4464D01*
X2173Y4546D01*
X2193Y4642D01*
X2173Y4738D01*
X2119Y4820D01*
X2037Y4875D01*
X1941Y4894D01*
D02*
G37*
G36*
X5267Y4706D02*
Y4381D01*
X5592D01*
X5567Y4476D01*
X5517Y4561D01*
X5447Y4631D01*
X5362Y4681D01*
X5267Y4706D01*
D02*
G37*
G36*
X5167D02*
X5072Y4681D01*
X4986Y4631D01*
X4916Y4561D01*
X4867Y4476D01*
X4841Y4381D01*
X5167D01*
Y4706D01*
D02*
G37*
G36*
X15937Y5071D02*
X15244D01*
Y4378D01*
X15937D01*
Y5071D01*
D02*
G37*
G36*
X13636D02*
X13545D01*
X13457Y5048D01*
X13378Y5002D01*
X13313Y4937D01*
X13267Y4858D01*
X13244Y4770D01*
Y4679D01*
X13267Y4591D01*
X13313Y4511D01*
X13378Y4447D01*
X13457Y4401D01*
X13545Y4378D01*
X13636D01*
X13724Y4401D01*
X13804Y4447D01*
X13868Y4511D01*
X13914Y4591D01*
X13937Y4679D01*
Y4770D01*
X13914Y4858D01*
X13868Y4937D01*
X13804Y5002D01*
X13724Y5048D01*
X13636Y5071D01*
D02*
G37*
G36*
X11636D02*
X11545D01*
X11457Y5048D01*
X11378Y5002D01*
X11313Y4937D01*
X11267Y4858D01*
X11244Y4770D01*
Y4679D01*
X11267Y4591D01*
X11313Y4511D01*
X11378Y4447D01*
X11457Y4401D01*
X11545Y4378D01*
X11636D01*
X11724Y4401D01*
X11804Y4447D01*
X11868Y4511D01*
X11914Y4591D01*
X11937Y4679D01*
Y4770D01*
X11914Y4858D01*
X11868Y4937D01*
X11804Y5002D01*
X11724Y5048D01*
X11636Y5071D01*
D02*
G37*
G36*
X10636D02*
X10545D01*
X10457Y5048D01*
X10378Y5002D01*
X10313Y4937D01*
X10267Y4858D01*
X10244Y4770D01*
Y4679D01*
X10267Y4591D01*
X10313Y4511D01*
X10378Y4447D01*
X10457Y4401D01*
X10545Y4378D01*
X10636D01*
X10724Y4401D01*
X10804Y4447D01*
X10868Y4511D01*
X10914Y4591D01*
X10937Y4679D01*
Y4770D01*
X10914Y4858D01*
X10868Y4937D01*
X10804Y5002D01*
X10724Y5048D01*
X10636Y5071D01*
D02*
G37*
G36*
X8636D02*
X8545D01*
X8457Y5048D01*
X8378Y5002D01*
X8313Y4937D01*
X8267Y4858D01*
X8244Y4770D01*
Y4679D01*
X8267Y4591D01*
X8313Y4511D01*
X8378Y4447D01*
X8457Y4401D01*
X8545Y4378D01*
X8636D01*
X8724Y4401D01*
X8804Y4447D01*
X8868Y4511D01*
X8914Y4591D01*
X8937Y4679D01*
Y4770D01*
X8914Y4858D01*
X8868Y4937D01*
X8804Y5002D01*
X8724Y5048D01*
X8636Y5071D01*
D02*
G37*
G36*
X9987Y4674D02*
X9641D01*
Y4328D01*
X9643D01*
X9744Y4355D01*
X9834Y4407D01*
X9908Y4481D01*
X9960Y4571D01*
X9987Y4672D01*
Y4674D01*
D02*
G37*
G36*
X9541D02*
X9194D01*
Y4672D01*
X9221Y4571D01*
X9273Y4481D01*
X9347Y4407D01*
X9437Y4355D01*
X9538Y4328D01*
X9541D01*
Y4674D01*
D02*
G37*
G36*
X5592Y4281D02*
X5267D01*
Y3955D01*
X5362Y3981D01*
X5447Y4030D01*
X5517Y4100D01*
X5567Y4186D01*
X5592Y4281D01*
D02*
G37*
G36*
X5167D02*
X4841D01*
X4867Y4186D01*
X4916Y4100D01*
X4986Y4030D01*
X5072Y3981D01*
X5167Y3955D01*
Y4281D01*
D02*
G37*
G36*
X2795Y4040D02*
X2716D01*
X2640Y4020D01*
X2572Y3980D01*
X2516Y3924D01*
X2476Y3856D01*
X2456Y3780D01*
Y3701D01*
X2476Y3624D01*
X2516Y3556D01*
X2572Y3500D01*
X2640Y3461D01*
X2716Y3440D01*
X2795D01*
X2872Y3461D01*
X2940Y3500D01*
X2996Y3556D01*
X3035Y3624D01*
X3056Y3701D01*
Y3780D01*
X3035Y3856D01*
X2996Y3924D01*
X2940Y3980D01*
X2872Y4020D01*
X2795Y4040D01*
D02*
G37*
G36*
X10837Y3105D02*
Y2806D01*
X11136D01*
X11114Y2891D01*
X11067Y2971D01*
X11002Y3036D01*
X10922Y3082D01*
X10837Y3105D01*
D02*
G37*
G36*
X10737D02*
X10652Y3082D01*
X10573Y3036D01*
X10507Y2971D01*
X10461Y2891D01*
X10438Y2806D01*
X10737D01*
Y3105D01*
D02*
G37*
G36*
X3230Y3099D02*
Y2800D01*
X3529D01*
X3506Y2885D01*
X3460Y2965D01*
X3395Y3030D01*
X3315Y3076D01*
X3230Y3099D01*
D02*
G37*
G36*
X3130D02*
X3045Y3076D01*
X2965Y3030D01*
X2900Y2965D01*
X2854Y2885D01*
X2831Y2800D01*
X3130D01*
Y3099D01*
D02*
G37*
G36*
X1941Y2984D02*
X1783D01*
X1687Y2965D01*
X1605Y2911D01*
X1551Y2829D01*
X1532Y2733D01*
X1551Y2636D01*
X1605Y2555D01*
X1687Y2500D01*
X1783Y2481D01*
X1941D01*
X2037Y2500D01*
X2119Y2555D01*
X2173Y2636D01*
X2193Y2733D01*
X2173Y2829D01*
X2119Y2911D01*
X2037Y2965D01*
X1941Y2984D01*
D02*
G37*
G36*
X11136Y2706D02*
X10837D01*
Y2407D01*
X10922Y2430D01*
X11002Y2476D01*
X11067Y2541D01*
X11114Y2621D01*
X11136Y2706D01*
D02*
G37*
G36*
X10737D02*
X10438D01*
X10461Y2621D01*
X10507Y2541D01*
X10573Y2476D01*
X10652Y2430D01*
X10737Y2407D01*
Y2706D01*
D02*
G37*
G36*
X3529Y2700D02*
X3230D01*
Y2401D01*
X3315Y2424D01*
X3395Y2470D01*
X3460Y2535D01*
X3506Y2615D01*
X3529Y2700D01*
D02*
G37*
G36*
X3130D02*
X2831D01*
X2854Y2615D01*
X2900Y2535D01*
X2965Y2470D01*
X3045Y2424D01*
X3130Y2401D01*
Y2700D01*
D02*
G37*
G36*
X768Y2903D02*
X571D01*
X496Y2893D01*
X427Y2865D01*
X367Y2819D01*
X321Y2759D01*
X292Y2689D01*
X282Y2614D01*
X292Y2540D01*
X321Y2470D01*
X367Y2410D01*
X427Y2364D01*
X496Y2336D01*
X571Y2326D01*
X768D01*
X842Y2336D01*
X912Y2364D01*
X972Y2410D01*
X1018Y2470D01*
X1047Y2540D01*
X1056Y2614D01*
X1047Y2689D01*
X1018Y2759D01*
X972Y2819D01*
X912Y2865D01*
X842Y2893D01*
X768Y2903D01*
D02*
G37*
G36*
X7097Y2317D02*
Y2018D01*
X7396D01*
X7373Y2104D01*
X7327Y2183D01*
X7262Y2249D01*
X7182Y2295D01*
X7097Y2317D01*
D02*
G37*
G36*
X6997D02*
X6912Y2295D01*
X6832Y2249D01*
X6767Y2183D01*
X6721Y2104D01*
X6698Y2018D01*
X6997D01*
Y2317D01*
D02*
G37*
G36*
X7396Y1919D02*
X7097D01*
Y1620D01*
X7182Y1642D01*
X7262Y1688D01*
X7327Y1754D01*
X7373Y1833D01*
X7396Y1919D01*
D02*
G37*
G36*
X6997D02*
X6698D01*
X6721Y1833D01*
X6767Y1754D01*
X6832Y1688D01*
X6912Y1642D01*
X6997Y1620D01*
Y1919D01*
D02*
G37*
G36*
X18961Y1625D02*
X18835D01*
X18711Y1600D01*
X18594Y1552D01*
X18489Y1482D01*
X18400Y1393D01*
X18330Y1288D01*
X18282Y1171D01*
X18257Y1047D01*
Y921D01*
X18282Y797D01*
X18330Y681D01*
X18400Y576D01*
X18489Y487D01*
X18594Y417D01*
X18711Y368D01*
X18835Y344D01*
X18961D01*
X19084Y368D01*
X19201Y417D01*
X19306Y487D01*
X19395Y576D01*
X19465Y681D01*
X19514Y797D01*
X19538Y921D01*
Y1047D01*
X19514Y1171D01*
X19465Y1288D01*
X19395Y1393D01*
X19306Y1482D01*
X19201Y1552D01*
X19084Y1600D01*
X18961Y1625D01*
D02*
G37*
G36*
X1047D02*
X921D01*
X797Y1600D01*
X681Y1552D01*
X576Y1482D01*
X487Y1393D01*
X417Y1288D01*
X368Y1171D01*
X344Y1047D01*
Y921D01*
X368Y797D01*
X417Y681D01*
X487Y576D01*
X576Y487D01*
X681Y417D01*
X797Y368D01*
X921Y344D01*
X1047D01*
X1171Y368D01*
X1288Y417D01*
X1393Y487D01*
X1482Y576D01*
X1552Y681D01*
X1600Y797D01*
X1625Y921D01*
Y1047D01*
X1600Y1171D01*
X1552Y1288D01*
X1482Y1393D01*
X1393Y1482D01*
X1288Y1552D01*
X1171Y1600D01*
X1047Y1625D01*
D02*
G37*
%LPD*%
D16*
X14591Y4724D02*
X15512Y5646D01*
Y9449D01*
D45*
X5217Y4331D02*
D03*
X8228Y9252D02*
D03*
D46*
X5217Y6299D02*
D03*
X8228Y11220D02*
D03*
D47*
X1644Y10384D02*
D03*
D48*
X3337D02*
D03*
D49*
X4518D02*
D03*
D50*
X15591Y4724D02*
D03*
D51*
X14591D02*
D03*
X13591D02*
D03*
X11591D02*
D03*
X10591D02*
D03*
X9591D02*
D03*
X8591D02*
D03*
D52*
X669Y2614D02*
D03*
Y4760D02*
D03*
D53*
X1862Y2733D02*
D03*
Y4642D02*
D03*
D54*
X2756Y3740D02*
D03*
X3180Y2750D02*
D03*
X10591Y9055D02*
D03*
X10787Y2756D02*
D03*
X15512Y9449D02*
D03*
X11772Y11614D02*
D03*
X11575Y9055D02*
D03*
X12559Y12402D02*
D03*
Y9055D02*
D03*
X7047Y1969D02*
D03*
D55*
X984Y14173D02*
D03*
X18898D02*
D03*
Y984D02*
D03*
X984D02*
D03*
M02*
