G04*
G04 #@! TF.GenerationSoftware,Altium Limited,Altium Designer,21.7.1 (17)*
G04*
G04 Layer_Physical_Order=1*
G04 Layer_Color=255*
%FSLAX24Y24*%
%MOIN*%
G70*
G04*
G04 #@! TF.SameCoordinates,156F93F5-282F-4AE9-AA7B-D440BB6AA61E*
G04*
G04*
G04 #@! TF.FilePolarity,Positive*
G04*
G01*
G75*
%ADD15C,0.0100*%
%ADD16C,0.0197*%
%ADD17R,0.0689X0.0157*%
%ADD18R,0.0984X0.0561*%
%ADD19R,0.0563X0.0913*%
G04:AMPARAMS|DCode=20|XSize=51.2mil|YSize=29.9mil|CornerRadius=3.7mil|HoleSize=0mil|Usage=FLASHONLY|Rotation=90.000|XOffset=0mil|YOffset=0mil|HoleType=Round|Shape=RoundedRectangle|*
%AMROUNDEDRECTD20*
21,1,0.0512,0.0224,0,0,90.0*
21,1,0.0437,0.0299,0,0,90.0*
1,1,0.0075,0.0112,0.0219*
1,1,0.0075,0.0112,-0.0219*
1,1,0.0075,-0.0112,-0.0219*
1,1,0.0075,-0.0112,0.0219*
%
%ADD20ROUNDEDRECTD20*%
G04:AMPARAMS|DCode=21|XSize=51.2mil|YSize=29.9mil|CornerRadius=3.7mil|HoleSize=0mil|Usage=FLASHONLY|Rotation=180.000|XOffset=0mil|YOffset=0mil|HoleType=Round|Shape=RoundedRectangle|*
%AMROUNDEDRECTD21*
21,1,0.0512,0.0224,0,0,180.0*
21,1,0.0437,0.0299,0,0,180.0*
1,1,0.0075,-0.0219,0.0112*
1,1,0.0075,0.0219,0.0112*
1,1,0.0075,0.0219,-0.0112*
1,1,0.0075,-0.0219,-0.0112*
%
%ADD21ROUNDEDRECTD21*%
G04:AMPARAMS|DCode=22|XSize=21.7mil|YSize=19.7mil|CornerRadius=2.5mil|HoleSize=0mil|Usage=FLASHONLY|Rotation=270.000|XOffset=0mil|YOffset=0mil|HoleType=Round|Shape=RoundedRectangle|*
%AMROUNDEDRECTD22*
21,1,0.0217,0.0148,0,0,270.0*
21,1,0.0167,0.0197,0,0,270.0*
1,1,0.0049,-0.0074,-0.0084*
1,1,0.0049,-0.0074,0.0084*
1,1,0.0049,0.0074,0.0084*
1,1,0.0049,0.0074,-0.0084*
%
%ADD22ROUNDEDRECTD22*%
G04:AMPARAMS|DCode=23|XSize=15.7mil|YSize=35.4mil|CornerRadius=2mil|HoleSize=0mil|Usage=FLASHONLY|Rotation=270.000|XOffset=0mil|YOffset=0mil|HoleType=Round|Shape=RoundedRectangle|*
%AMROUNDEDRECTD23*
21,1,0.0157,0.0315,0,0,270.0*
21,1,0.0118,0.0354,0,0,270.0*
1,1,0.0039,-0.0157,-0.0059*
1,1,0.0039,-0.0157,0.0059*
1,1,0.0039,0.0157,0.0059*
1,1,0.0039,0.0157,-0.0059*
%
%ADD23ROUNDEDRECTD23*%
%ADD24C,0.0600*%
%ADD25R,0.0575X0.0787*%
%ADD45C,0.0551*%
%ADD46R,0.0551X0.0551*%
%ADD47C,0.1181*%
%ADD48R,0.0598X0.0598*%
%ADD49C,0.0598*%
%ADD50R,0.0594X0.0594*%
%ADD51C,0.0594*%
%ADD52O,0.0669X0.0472*%
%ADD53O,0.0551X0.0394*%
%ADD54C,0.0500*%
%ADD55C,0.1181*%
G36*
X19781Y7000D02*
X14633D01*
Y7737D01*
X14679Y7756D01*
X14863Y7572D01*
X14881Y7557D01*
X14901Y7545D01*
X14922Y7536D01*
X14945Y7530D01*
X14969Y7528D01*
X15785D01*
X15786Y7527D01*
X15802Y7497D01*
X15821Y7468D01*
X15843Y7442D01*
X15867Y7418D01*
X15894Y7396D01*
X15922Y7377D01*
X15953Y7360D01*
X15984Y7347D01*
X16017Y7337D01*
X16051Y7331D01*
X16085Y7327D01*
X16120D01*
X16154Y7331D01*
X16188Y7337D01*
X16220Y7347D01*
X16252Y7360D01*
X16283Y7377D01*
X16311Y7396D01*
X16338Y7418D01*
X16362Y7442D01*
X16384Y7468D01*
X16403Y7497D01*
X16419Y7527D01*
X16432Y7559D01*
X16442Y7592D01*
X16449Y7626D01*
X16452Y7660D01*
Y7694D01*
X16449Y7729D01*
X16442Y7762D01*
X16432Y7795D01*
X16419Y7827D01*
X16403Y7857D01*
X16384Y7886D01*
X16362Y7912D01*
X16338Y7937D01*
X16311Y7959D01*
X16283Y7978D01*
X16252Y7994D01*
X16220Y8007D01*
X16188Y8017D01*
X16154Y8024D01*
X16120Y8027D01*
X16085D01*
X16051Y8024D01*
X16017Y8017D01*
X15984Y8007D01*
X15953Y7994D01*
X15922Y7978D01*
X15894Y7959D01*
X15867Y7937D01*
X15843Y7912D01*
X15821Y7886D01*
X15802Y7857D01*
X15786Y7827D01*
X15785Y7826D01*
X15030D01*
X14684Y8172D01*
Y8486D01*
X14683Y8503D01*
X14678Y8520D01*
X14669Y8535D01*
X14659Y8548D01*
X14645Y8559D01*
X14633Y8566D01*
Y8942D01*
X14676D01*
Y9956D01*
X14013D01*
Y8942D01*
X14335D01*
Y8566D01*
X14323Y8559D01*
X14310Y8548D01*
X14299Y8535D01*
X14291Y8520D01*
X14286Y8503D01*
X14284Y8486D01*
Y8049D01*
X14286Y8032D01*
X14291Y8016D01*
X14299Y8000D01*
X14310Y7987D01*
X14323Y7976D01*
X14335Y7970D01*
Y7000D01*
X13928D01*
Y7970D01*
X13941Y7976D01*
X13954Y7987D01*
X13965Y8000D01*
X13973Y8016D01*
X13978Y8032D01*
X13980Y8049D01*
Y8486D01*
X13978Y8503D01*
X13973Y8520D01*
X13965Y8535D01*
X13954Y8548D01*
X13941Y8559D01*
X13925Y8567D01*
X13909Y8572D01*
X13892Y8574D01*
X13667D01*
X13650Y8572D01*
X13634Y8567D01*
X13619Y8559D01*
X13605Y8548D01*
X13594Y8535D01*
X13586Y8520D01*
X13581Y8503D01*
X13579Y8486D01*
Y8049D01*
X13581Y8032D01*
X13586Y8016D01*
X13594Y8000D01*
X13605Y7987D01*
X13619Y7976D01*
X13631Y7970D01*
Y7000D01*
X100D01*
Y14764D01*
X100Y14764D01*
Y15057D01*
X19781D01*
X19781Y7000D01*
D02*
G37*
G36*
X19780Y102D02*
X157Y102D01*
X102D01*
Y2978D01*
X1113D01*
Y3639D01*
X102D01*
Y3736D01*
X1113D01*
Y4397D01*
X102D01*
Y6946D01*
X13628D01*
Y5093D01*
X13607Y5071D01*
X13545D01*
X13457Y5048D01*
X13378Y5002D01*
X13313Y4937D01*
X13267Y4858D01*
X13244Y4770D01*
Y4679D01*
X13267Y4591D01*
X13313Y4511D01*
X13378Y4447D01*
X13457Y4401D01*
X13545Y4378D01*
X13636D01*
X13724Y4401D01*
X13804Y4447D01*
X13868Y4511D01*
X13914Y4591D01*
X13937Y4679D01*
Y4770D01*
X13914Y4858D01*
X13880Y4916D01*
X13887Y4923D01*
X13887Y4923D01*
X13919Y4972D01*
X13931Y5030D01*
Y6946D01*
X14333D01*
Y5831D01*
X14333Y5831D01*
X14344Y5773D01*
X14377Y5724D01*
X15244Y4857D01*
Y4378D01*
X15937D01*
Y5071D01*
X15458D01*
X14636Y5893D01*
Y6946D01*
X19780D01*
Y102D01*
D02*
G37*
%LPC*%
G36*
X18923Y14814D02*
X18872D01*
X18822Y14810D01*
X18773Y14802D01*
X18724Y14790D01*
X18676Y14775D01*
X18629Y14755D01*
X18584Y14733D01*
X18541Y14706D01*
X18501Y14677D01*
X18463Y14644D01*
X18427Y14608D01*
X18394Y14570D01*
X18365Y14529D01*
X18338Y14486D01*
X18315Y14442D01*
X18296Y14395D01*
X18281Y14347D01*
X18269Y14298D01*
X18261Y14249D01*
X18257Y14198D01*
Y14148D01*
X18261Y14098D01*
X18269Y14048D01*
X18281Y13999D01*
X18296Y13951D01*
X18315Y13905D01*
X18338Y13860D01*
X18365Y13817D01*
X18394Y13776D01*
X18427Y13738D01*
X18463Y13702D01*
X18501Y13670D01*
X18541Y13640D01*
X18584Y13614D01*
X18629Y13591D01*
X18676Y13572D01*
X18724Y13556D01*
X18773Y13544D01*
X18822Y13537D01*
X18872Y13533D01*
X18923D01*
X18973Y13537D01*
X19023Y13544D01*
X19072Y13556D01*
X19120Y13572D01*
X19166Y13591D01*
X19211Y13614D01*
X19254Y13640D01*
X19295Y13670D01*
X19333Y13702D01*
X19368Y13738D01*
X19401Y13776D01*
X19431Y13817D01*
X19457Y13860D01*
X19480Y13905D01*
X19499Y13951D01*
X19515Y13999D01*
X19526Y14048D01*
X19534Y14098D01*
X19538Y14148D01*
Y14198D01*
X19534Y14249D01*
X19526Y14298D01*
X19515Y14347D01*
X19499Y14395D01*
X19480Y14442D01*
X19457Y14486D01*
X19431Y14529D01*
X19401Y14570D01*
X19368Y14608D01*
X19333Y14644D01*
X19295Y14677D01*
X19254Y14706D01*
X19211Y14733D01*
X19166Y14755D01*
X19120Y14775D01*
X19072Y14790D01*
X19023Y14802D01*
X18973Y14810D01*
X18923Y14814D01*
D02*
G37*
G36*
X1009D02*
X959D01*
X909Y14810D01*
X859Y14802D01*
X810Y14790D01*
X762Y14775D01*
X716Y14755D01*
X671Y14733D01*
X628Y14706D01*
X587Y14677D01*
X549Y14644D01*
X514Y14608D01*
X481Y14570D01*
X451Y14529D01*
X425Y14486D01*
X402Y14442D01*
X383Y14395D01*
X367Y14347D01*
X356Y14298D01*
X348Y14249D01*
X344Y14198D01*
Y14148D01*
X348Y14098D01*
X356Y14048D01*
X367Y13999D01*
X383Y13951D01*
X402Y13905D01*
X425Y13860D01*
X451Y13817D01*
X481Y13776D01*
X514Y13738D01*
X549Y13702D01*
X587Y13670D01*
X628Y13640D01*
X671Y13614D01*
X716Y13591D01*
X762Y13572D01*
X810Y13556D01*
X859Y13544D01*
X909Y13537D01*
X959Y13533D01*
X1009D01*
X1060Y13537D01*
X1109Y13544D01*
X1158Y13556D01*
X1206Y13572D01*
X1253Y13591D01*
X1297Y13614D01*
X1340Y13640D01*
X1381Y13670D01*
X1419Y13702D01*
X1455Y13738D01*
X1488Y13776D01*
X1517Y13817D01*
X1544Y13860D01*
X1566Y13905D01*
X1586Y13951D01*
X1601Y13999D01*
X1613Y14048D01*
X1621Y14098D01*
X1625Y14148D01*
Y14198D01*
X1621Y14249D01*
X1613Y14298D01*
X1601Y14347D01*
X1586Y14395D01*
X1566Y14442D01*
X1544Y14486D01*
X1517Y14529D01*
X1488Y14570D01*
X1455Y14608D01*
X1419Y14644D01*
X1381Y14677D01*
X1340Y14706D01*
X1297Y14733D01*
X1253Y14755D01*
X1206Y14775D01*
X1158Y14790D01*
X1109Y14802D01*
X1060Y14810D01*
X1009Y14814D01*
D02*
G37*
G36*
X13420Y12958D02*
X13089D01*
Y12550D01*
X12876D01*
X12876Y12551D01*
X12860Y12582D01*
X12841Y12610D01*
X12819Y12637D01*
X12794Y12661D01*
X12768Y12683D01*
X12739Y12702D01*
X12709Y12718D01*
X12677Y12732D01*
X12644Y12741D01*
X12610Y12748D01*
X12609Y12748D01*
Y12402D01*
Y12055D01*
X12610Y12055D01*
X12644Y12062D01*
X12677Y12072D01*
X12709Y12085D01*
X12739Y12101D01*
X12768Y12120D01*
X12794Y12142D01*
X12819Y12166D01*
X12841Y12193D01*
X12860Y12221D01*
X12876Y12252D01*
X12876Y12253D01*
X13089D01*
Y11845D01*
X13420D01*
Y12402D01*
Y12958D01*
D02*
G37*
G36*
X11136Y12708D02*
X10911D01*
X10894Y12706D01*
X10878Y12701D01*
X10863Y12693D01*
X10849Y12682D01*
X10838Y12669D01*
X10830Y12654D01*
X10825Y12637D01*
X10824Y12620D01*
Y12550D01*
X10289D01*
X10282Y12554D01*
X10268Y12559D01*
X10253Y12560D01*
X10105D01*
X10091Y12559D01*
X10077Y12554D01*
X10064Y12548D01*
X10059Y12544D01*
X10031Y12543D01*
X10005Y12549D01*
X10000Y12552D01*
X9996Y12559D01*
X9983Y12574D01*
X9968Y12586D01*
X9951Y12597D01*
X9933Y12604D01*
X9914Y12609D01*
X9895Y12610D01*
X9871D01*
Y12402D01*
Y12193D01*
X9895D01*
X9914Y12194D01*
X9933Y12199D01*
X9951Y12207D01*
X9968Y12217D01*
X9983Y12230D01*
X9996Y12244D01*
X10000Y12252D01*
X10005Y12255D01*
X10031Y12260D01*
X10059Y12259D01*
X10064Y12256D01*
X10077Y12249D01*
X10091Y12244D01*
X10105Y12243D01*
X10253D01*
X10268Y12244D01*
X10282Y12249D01*
X10289Y12253D01*
X10824D01*
Y12183D01*
X10825Y12166D01*
X10830Y12149D01*
X10838Y12134D01*
X10849Y12121D01*
X10863Y12110D01*
X10878Y12102D01*
X10894Y12097D01*
X10911Y12095D01*
X11136D01*
X11153Y12097D01*
X11169Y12102D01*
X11185Y12110D01*
X11198Y12121D01*
X11209Y12134D01*
X11217Y12149D01*
X11222Y12166D01*
X11224Y12183D01*
Y12620D01*
X11222Y12637D01*
X11217Y12654D01*
X11209Y12669D01*
X11198Y12682D01*
X11185Y12693D01*
X11169Y12701D01*
X11153Y12706D01*
X11136Y12708D01*
D02*
G37*
G36*
X12509Y12748D02*
X12508Y12748D01*
X12474Y12741D01*
X12441Y12732D01*
X12409Y12718D01*
X12379Y12702D01*
X12350Y12683D01*
X12324Y12661D01*
X12299Y12637D01*
X12278Y12610D01*
X12258Y12582D01*
X12242Y12551D01*
X12229Y12520D01*
X12219Y12487D01*
X12212Y12453D01*
X12212Y12452D01*
X12509D01*
Y12748D01*
D02*
G37*
G36*
X6507Y12799D02*
Y12452D01*
X6854D01*
X6853Y12460D01*
X6845Y12499D01*
X6834Y12536D01*
X6819Y12573D01*
X6800Y12607D01*
X6778Y12640D01*
X6753Y12671D01*
X6726Y12698D01*
X6695Y12723D01*
X6663Y12745D01*
X6628Y12764D01*
X6592Y12779D01*
X6554Y12790D01*
X6515Y12798D01*
X6507Y12799D01*
D02*
G37*
G36*
X6407D02*
X6398Y12798D01*
X6359Y12790D01*
X6322Y12779D01*
X6285Y12764D01*
X6251Y12745D01*
X6218Y12723D01*
X6188Y12698D01*
X6160Y12671D01*
X6135Y12640D01*
X6113Y12607D01*
X6095Y12573D01*
X6080Y12536D01*
X6068Y12499D01*
X6061Y12460D01*
X6060Y12452D01*
X6407D01*
Y12799D01*
D02*
G37*
G36*
X13852Y12958D02*
X13520D01*
Y12452D01*
X13852D01*
Y12958D01*
D02*
G37*
G36*
X9771Y12610D02*
X9747D01*
X9728Y12609D01*
X9708Y12604D01*
X9690Y12597D01*
X9674Y12586D01*
X9659Y12574D01*
X9646Y12559D01*
X9636Y12542D01*
X9628Y12524D01*
X9624Y12505D01*
X9622Y12485D01*
Y12452D01*
X9771D01*
Y12610D01*
D02*
G37*
G36*
Y12352D02*
X9622D01*
Y12318D01*
X9624Y12298D01*
X9628Y12279D01*
X9636Y12261D01*
X9646Y12244D01*
X9659Y12230D01*
X9674Y12217D01*
X9690Y12207D01*
X9708Y12199D01*
X9728Y12194D01*
X9747Y12193D01*
X9771D01*
Y12352D01*
D02*
G37*
G36*
X12509Y12352D02*
X12212D01*
X12212Y12350D01*
X12219Y12316D01*
X12229Y12284D01*
X12242Y12252D01*
X12258Y12221D01*
X12278Y12193D01*
X12299Y12166D01*
X12324Y12142D01*
X12350Y12120D01*
X12379Y12101D01*
X12409Y12085D01*
X12441Y12072D01*
X12474Y12062D01*
X12508Y12055D01*
X12509Y12055D01*
Y12352D01*
D02*
G37*
G36*
X6854D02*
X6507D01*
Y12005D01*
X6515Y12005D01*
X6554Y12013D01*
X6592Y12025D01*
X6628Y12040D01*
X6663Y12058D01*
X6695Y12080D01*
X6726Y12105D01*
X6753Y12133D01*
X6778Y12163D01*
X6800Y12196D01*
X6819Y12230D01*
X6834Y12267D01*
X6845Y12304D01*
X6853Y12343D01*
X6854Y12352D01*
D02*
G37*
G36*
X6407D02*
X6060D01*
X6061Y12343D01*
X6068Y12304D01*
X6080Y12267D01*
X6095Y12230D01*
X6113Y12196D01*
X6135Y12163D01*
X6160Y12133D01*
X6188Y12105D01*
X6218Y12080D01*
X6251Y12058D01*
X6285Y12040D01*
X6322Y12025D01*
X6359Y12013D01*
X6398Y12005D01*
X6407Y12005D01*
Y12352D01*
D02*
G37*
G36*
X13852Y12352D02*
X13520D01*
Y11845D01*
X13852D01*
Y12352D01*
D02*
G37*
G36*
X11841Y12708D02*
X11616D01*
X11599Y12706D01*
X11583Y12701D01*
X11567Y12693D01*
X11554Y12682D01*
X11543Y12669D01*
X11535Y12654D01*
X11530Y12637D01*
X11528Y12620D01*
Y12183D01*
X11530Y12166D01*
X11535Y12149D01*
X11543Y12134D01*
X11554Y12121D01*
X11567Y12110D01*
X11583Y12102D01*
X11599Y12097D01*
X11601Y12097D01*
Y11861D01*
X11598Y11859D01*
X11571Y11838D01*
X11548Y11814D01*
X11527Y11788D01*
X11509Y11760D01*
X11494Y11729D01*
X11483Y11697D01*
X11475Y11665D01*
X11472Y11631D01*
Y11597D01*
X11475Y11564D01*
X11483Y11531D01*
X11494Y11499D01*
X11509Y11469D01*
X11527Y11440D01*
X11548Y11414D01*
X11571Y11390D01*
X11598Y11369D01*
X11626Y11351D01*
X11657Y11337D01*
X11688Y11325D01*
X11721Y11318D01*
X11755Y11314D01*
X11789D01*
X11822Y11318D01*
X11855Y11325D01*
X11887Y11337D01*
X11917Y11351D01*
X11946Y11369D01*
X11972Y11390D01*
X11996Y11414D01*
X12017Y11440D01*
X12035Y11469D01*
X12049Y11499D01*
X12060Y11531D01*
X12068Y11564D01*
X12072Y11597D01*
Y11631D01*
X12068Y11665D01*
X12060Y11697D01*
X12049Y11729D01*
X12035Y11760D01*
X12017Y11788D01*
X11996Y11814D01*
X11972Y11838D01*
X11946Y11859D01*
X11917Y11877D01*
X11899Y11886D01*
Y12118D01*
X11903Y12121D01*
X11914Y12134D01*
X11922Y12149D01*
X11927Y12166D01*
X11928Y12183D01*
Y12620D01*
X11927Y12637D01*
X11922Y12654D01*
X11914Y12669D01*
X11903Y12682D01*
X11889Y12693D01*
X11874Y12701D01*
X11858Y12706D01*
X11841Y12708D01*
D02*
G37*
G36*
X8604Y11596D02*
X8278D01*
Y11270D01*
X8604D01*
Y11596D01*
D02*
G37*
G36*
X8178D02*
X7853D01*
Y11270D01*
X8178D01*
Y11596D01*
D02*
G37*
G36*
X8604Y11170D02*
X8278D01*
Y10845D01*
X8604D01*
Y11170D01*
D02*
G37*
G36*
X8178D02*
X7853D01*
Y10845D01*
X8178D01*
Y11170D01*
D02*
G37*
G36*
X11793Y10837D02*
X11625D01*
Y10637D01*
X11931D01*
Y10699D01*
X11929Y10720D01*
X11924Y10741D01*
X11916Y10761D01*
X11905Y10780D01*
X11891Y10796D01*
X11874Y10810D01*
X11856Y10822D01*
X11836Y10830D01*
X11815Y10835D01*
X11793Y10837D01*
D02*
G37*
G36*
X11525D02*
X11356D01*
X11335Y10835D01*
X11314Y10830D01*
X11294Y10822D01*
X11275Y10810D01*
X11259Y10796D01*
X11245Y10780D01*
X11234Y10761D01*
X11225Y10741D01*
X11220Y10720D01*
X11218Y10699D01*
Y10637D01*
X11525D01*
Y10837D01*
D02*
G37*
G36*
X10748Y10632D02*
X10641D01*
Y10503D01*
X10868D01*
Y10512D01*
X10867Y10531D01*
X10862Y10549D01*
X10855Y10566D01*
X10845Y10582D01*
X10833Y10597D01*
X10819Y10609D01*
X10803Y10619D01*
X10785Y10626D01*
X10767Y10630D01*
X10748Y10632D01*
D02*
G37*
G36*
X10541D02*
X10433D01*
X10414Y10630D01*
X10396Y10626D01*
X10379Y10619D01*
X10362Y10609D01*
X10348Y10597D01*
X10336Y10582D01*
X10326Y10566D01*
X10319Y10549D01*
X10314Y10531D01*
X10313Y10512D01*
Y10503D01*
X10541D01*
Y10632D01*
D02*
G37*
G36*
X4568Y10780D02*
Y10434D01*
X4914D01*
X4913Y10443D01*
X4905Y10481D01*
X4894Y10519D01*
X4879Y10555D01*
X4861Y10589D01*
X4839Y10622D01*
X4814Y10652D01*
X4786Y10680D01*
X4756Y10705D01*
X4723Y10727D01*
X4689Y10745D01*
X4652Y10760D01*
X4615Y10772D01*
X4576Y10779D01*
X4568Y10780D01*
D02*
G37*
G36*
X4468D02*
X4459Y10779D01*
X4421Y10772D01*
X4383Y10760D01*
X4347Y10745D01*
X4312Y10727D01*
X4280Y10705D01*
X4249Y10680D01*
X4222Y10652D01*
X4197Y10622D01*
X4175Y10589D01*
X4156Y10555D01*
X4141Y10519D01*
X4130Y10481D01*
X4122Y10443D01*
X4121Y10434D01*
X4468D01*
Y10780D01*
D02*
G37*
G36*
X11931Y10537D02*
X11625D01*
Y10337D01*
X11793D01*
X11815Y10338D01*
X11836Y10343D01*
X11856Y10352D01*
X11874Y10363D01*
X11891Y10377D01*
X11905Y10393D01*
X11916Y10412D01*
X11924Y10432D01*
X11929Y10453D01*
X11931Y10474D01*
Y10537D01*
D02*
G37*
G36*
X11525D02*
X11218D01*
Y10474D01*
X11220Y10453D01*
X11225Y10432D01*
X11234Y10412D01*
X11245Y10393D01*
X11259Y10377D01*
X11275Y10363D01*
X11294Y10352D01*
X11314Y10343D01*
X11335Y10338D01*
X11356Y10337D01*
X11525D01*
Y10537D01*
D02*
G37*
G36*
X10868Y10403D02*
X10641D01*
Y10274D01*
X10748D01*
X10767Y10275D01*
X10785Y10280D01*
X10803Y10287D01*
X10819Y10297D01*
X10833Y10309D01*
X10845Y10323D01*
X10855Y10339D01*
X10862Y10357D01*
X10867Y10375D01*
X10868Y10394D01*
Y10403D01*
D02*
G37*
G36*
X10541D02*
X10313D01*
Y10394D01*
X10314Y10375D01*
X10319Y10357D01*
X10326Y10339D01*
X10336Y10323D01*
X10348Y10309D01*
X10362Y10297D01*
X10379Y10287D01*
X10396Y10280D01*
X10414Y10275D01*
X10433Y10274D01*
X10541D01*
Y10403D01*
D02*
G37*
G36*
X3686Y10733D02*
X2987D01*
Y10035D01*
X3686D01*
Y10733D01*
D02*
G37*
G36*
X4914Y10334D02*
X4568D01*
Y9988D01*
X4576Y9988D01*
X4615Y9996D01*
X4652Y10008D01*
X4689Y10023D01*
X4723Y10041D01*
X4756Y10063D01*
X4786Y10088D01*
X4814Y10115D01*
X4839Y10146D01*
X4861Y10178D01*
X4879Y10213D01*
X4894Y10249D01*
X4905Y10287D01*
X4913Y10325D01*
X4914Y10334D01*
D02*
G37*
G36*
X4468D02*
X4121D01*
X4122Y10325D01*
X4130Y10287D01*
X4141Y10249D01*
X4156Y10213D01*
X4175Y10178D01*
X4197Y10146D01*
X4222Y10115D01*
X4249Y10088D01*
X4280Y10063D01*
X4312Y10041D01*
X4347Y10023D01*
X4383Y10008D01*
X4421Y9996D01*
X4459Y9988D01*
X4468Y9988D01*
Y10334D01*
D02*
G37*
G36*
X1669Y11024D02*
X1619D01*
X1568Y11020D01*
X1519Y11013D01*
X1470Y11001D01*
X1422Y10985D01*
X1375Y10966D01*
X1330Y10943D01*
X1288Y10917D01*
X1247Y10887D01*
X1209Y10855D01*
X1173Y10819D01*
X1140Y10781D01*
X1111Y10740D01*
X1084Y10697D01*
X1062Y10652D01*
X1042Y10606D01*
X1027Y10558D01*
X1015Y10509D01*
X1007Y10459D01*
X1003Y10409D01*
Y10359D01*
X1007Y10309D01*
X1015Y10259D01*
X1027Y10210D01*
X1042Y10162D01*
X1062Y10115D01*
X1084Y10071D01*
X1111Y10028D01*
X1140Y9987D01*
X1173Y9949D01*
X1209Y9913D01*
X1247Y9880D01*
X1288Y9851D01*
X1330Y9825D01*
X1375Y9802D01*
X1422Y9782D01*
X1470Y9767D01*
X1519Y9755D01*
X1568Y9747D01*
X1619Y9743D01*
X1669D01*
X1719Y9747D01*
X1769Y9755D01*
X1818Y9767D01*
X1866Y9782D01*
X1912Y9802D01*
X1957Y9825D01*
X2000Y9851D01*
X2041Y9880D01*
X2079Y9913D01*
X2114Y9949D01*
X2147Y9987D01*
X2177Y10028D01*
X2203Y10071D01*
X2226Y10115D01*
X2245Y10162D01*
X2261Y10210D01*
X2272Y10259D01*
X2280Y10309D01*
X2284Y10359D01*
Y10409D01*
X2280Y10459D01*
X2272Y10509D01*
X2261Y10558D01*
X2245Y10606D01*
X2226Y10652D01*
X2203Y10697D01*
X2177Y10740D01*
X2147Y10781D01*
X2114Y10819D01*
X2079Y10855D01*
X2041Y10887D01*
X2000Y10917D01*
X1957Y10943D01*
X1912Y10966D01*
X1866Y10985D01*
X1818Y11001D01*
X1769Y11013D01*
X1719Y11020D01*
X1669Y11024D01*
D02*
G37*
G36*
X13743Y9956D02*
X13080D01*
Y9487D01*
X12842D01*
X12819Y9485D01*
X12796Y9480D01*
X12774Y9471D01*
X12754Y9458D01*
X12737Y9443D01*
X12638Y9345D01*
X12609Y9351D01*
X12576Y9355D01*
X12542D01*
X12509Y9351D01*
X12476Y9344D01*
X12444Y9333D01*
X12414Y9318D01*
X12385Y9300D01*
X12359Y9279D01*
X12335Y9255D01*
X12314Y9229D01*
X12296Y9200D01*
X12281Y9170D01*
X12270Y9138D01*
X12263Y9105D01*
X12259Y9072D01*
Y9038D01*
X12263Y9005D01*
X12270Y8972D01*
X12281Y8940D01*
X12296Y8910D01*
X12314Y8881D01*
X12335Y8855D01*
X12359Y8831D01*
X12385Y8810D01*
X12414Y8792D01*
X12444Y8778D01*
X12476Y8766D01*
X12509Y8759D01*
X12542Y8755D01*
X12576D01*
X12609Y8759D01*
X12642Y8766D01*
X12674Y8778D01*
X12704Y8792D01*
X12733Y8810D01*
X12759Y8831D01*
X12783Y8855D01*
X12804Y8881D01*
X12822Y8910D01*
X12837Y8940D01*
X12848Y8972D01*
X12855Y9005D01*
X12859Y9038D01*
Y9072D01*
X12855Y9105D01*
X12849Y9134D01*
X12904Y9189D01*
X13080D01*
Y8942D01*
X13743D01*
Y9956D01*
D02*
G37*
G36*
X8244Y9578D02*
X8212D01*
X8181Y9574D01*
X8149Y9568D01*
X8119Y9559D01*
X8089Y9547D01*
X8061Y9532D01*
X8034Y9514D01*
X8009Y9494D01*
X7987Y9471D01*
X7967Y9446D01*
X7949Y9420D01*
X7934Y9391D01*
X7921Y9362D01*
X7912Y9331D01*
X7906Y9300D01*
X7903Y9268D01*
Y9236D01*
X7906Y9204D01*
X7912Y9173D01*
X7918Y9152D01*
X6986Y8220D01*
X6774D01*
X6773Y8221D01*
X6757Y8251D01*
X6738Y8280D01*
X6716Y8306D01*
X6692Y8331D01*
X6665Y8352D01*
X6637Y8371D01*
X6607Y8388D01*
X6575Y8401D01*
X6542Y8411D01*
X6508Y8418D01*
X6474Y8421D01*
X6439D01*
X6405Y8418D01*
X6372Y8411D01*
X6339Y8401D01*
X6307Y8388D01*
X6277Y8371D01*
X6248Y8352D01*
X6221Y8331D01*
X6197Y8306D01*
X6175Y8280D01*
X6156Y8251D01*
X6140Y8221D01*
X6127Y8189D01*
X6117Y8156D01*
X6110Y8122D01*
X6107Y8088D01*
Y8054D01*
X6110Y8019D01*
X6117Y7986D01*
X6127Y7953D01*
X6140Y7921D01*
X6156Y7891D01*
X6175Y7862D01*
X6197Y7836D01*
X6221Y7811D01*
X6248Y7789D01*
X6277Y7770D01*
X6307Y7754D01*
X6339Y7741D01*
X6372Y7731D01*
X6405Y7724D01*
X6439Y7721D01*
X6474D01*
X6508Y7724D01*
X6542Y7731D01*
X6575Y7741D01*
X6607Y7754D01*
X6637Y7770D01*
X6665Y7789D01*
X6692Y7811D01*
X6716Y7836D01*
X6738Y7862D01*
X6757Y7891D01*
X6773Y7921D01*
X6774Y7922D01*
X7047D01*
X7071Y7924D01*
X7093Y7929D01*
X7115Y7938D01*
X7135Y7950D01*
X7153Y7966D01*
X8129Y8942D01*
X8149Y8936D01*
X8181Y8930D01*
X8212Y8926D01*
X8244D01*
X8276Y8930D01*
X8308Y8936D01*
X8338Y8945D01*
X8368Y8957D01*
X8396Y8972D01*
X8423Y8990D01*
X8447Y9010D01*
X8470Y9033D01*
X8490Y9058D01*
X8508Y9084D01*
X8523Y9113D01*
X8535Y9142D01*
X8545Y9173D01*
X8551Y9204D01*
X8554Y9236D01*
Y9268D01*
X8551Y9300D01*
X8545Y9331D01*
X8535Y9362D01*
X8523Y9391D01*
X8508Y9420D01*
X8490Y9446D01*
X8470Y9471D01*
X8447Y9494D01*
X8423Y9514D01*
X8396Y9532D01*
X8368Y9547D01*
X8338Y9559D01*
X8308Y9568D01*
X8276Y9574D01*
X8244Y9578D01*
D02*
G37*
G36*
X11793Y10082D02*
X11356D01*
X11339Y10080D01*
X11323Y10075D01*
X11308Y10067D01*
X11294Y10056D01*
X11283Y10043D01*
X11275Y10028D01*
X11270Y10011D01*
X11268Y9994D01*
Y9770D01*
X11270Y9753D01*
X11275Y9736D01*
X11283Y9721D01*
X11294Y9708D01*
X11308Y9697D01*
X11323Y9689D01*
X11339Y9684D01*
X11356Y9682D01*
X11426D01*
Y9316D01*
X11401Y9300D01*
X11375Y9279D01*
X11351Y9255D01*
X11330Y9229D01*
X11312Y9200D01*
X11297Y9170D01*
X11286Y9138D01*
X11279Y9105D01*
X11275Y9072D01*
Y9038D01*
X11279Y9005D01*
X11286Y8972D01*
X11297Y8940D01*
X11312Y8910D01*
X11330Y8881D01*
X11351Y8855D01*
X11375Y8831D01*
X11401Y8810D01*
X11429Y8792D01*
X11460Y8778D01*
X11492Y8766D01*
X11524Y8759D01*
X11558Y8755D01*
X11592D01*
X11625Y8759D01*
X11658Y8766D01*
X11690Y8778D01*
X11720Y8792D01*
X11749Y8810D01*
X11775Y8831D01*
X11799Y8855D01*
X11820Y8881D01*
X11838Y8910D01*
X11852Y8940D01*
X11864Y8972D01*
X11871Y9005D01*
X11875Y9038D01*
Y9072D01*
X11871Y9105D01*
X11864Y9138D01*
X11852Y9170D01*
X11838Y9200D01*
X11820Y9229D01*
X11799Y9255D01*
X11775Y9279D01*
X11749Y9300D01*
X11724Y9316D01*
Y9682D01*
X11793D01*
X11810Y9684D01*
X11827Y9689D01*
X11842Y9697D01*
X11855Y9708D01*
X11866Y9721D01*
X11874Y9736D01*
X11879Y9753D01*
X11881Y9770D01*
Y9994D01*
X11879Y10011D01*
X11874Y10028D01*
X11866Y10043D01*
X11855Y10056D01*
X11842Y10067D01*
X11827Y10075D01*
X11810Y10080D01*
X11793Y10082D01*
D02*
G37*
G36*
X10591Y10169D02*
X10567Y10167D01*
X10545Y10161D01*
X10523Y10152D01*
X10517Y10149D01*
X10433D01*
X10419Y10147D01*
X10406Y10143D01*
X10394Y10137D01*
X10384Y10128D01*
X10375Y10118D01*
X10368Y10106D01*
X10364Y10092D01*
X10363Y10079D01*
Y9961D01*
X10364Y9947D01*
X10368Y9934D01*
X10375Y9922D01*
X10384Y9911D01*
X10394Y9902D01*
X10406Y9896D01*
X10419Y9892D01*
X10433Y9891D01*
X10442D01*
Y9316D01*
X10417Y9300D01*
X10390Y9279D01*
X10367Y9255D01*
X10345Y9229D01*
X10328Y9200D01*
X10313Y9170D01*
X10302Y9138D01*
X10294Y9105D01*
X10291Y9072D01*
Y9038D01*
X10294Y9005D01*
X10302Y8972D01*
X10313Y8940D01*
X10328Y8910D01*
X10345Y8881D01*
X10367Y8855D01*
X10390Y8831D01*
X10417Y8810D01*
X10445Y8792D01*
X10476Y8778D01*
X10507Y8766D01*
X10540Y8759D01*
X10574Y8755D01*
X10607D01*
X10641Y8759D01*
X10674Y8766D01*
X10706Y8778D01*
X10736Y8792D01*
X10764Y8810D01*
X10791Y8831D01*
X10815Y8855D01*
X10836Y8881D01*
X10854Y8910D01*
X10868Y8940D01*
X10879Y8972D01*
X10887Y9005D01*
X10891Y9038D01*
Y9072D01*
X10887Y9105D01*
X10879Y9138D01*
X10868Y9170D01*
X10854Y9200D01*
X10836Y9229D01*
X10815Y9255D01*
X10791Y9279D01*
X10764Y9300D01*
X10739Y9316D01*
Y9891D01*
X10748D01*
X10762Y9892D01*
X10775Y9896D01*
X10787Y9902D01*
X10798Y9911D01*
X10806Y9922D01*
X10813Y9934D01*
X10817Y9947D01*
X10818Y9961D01*
Y10079D01*
X10817Y10092D01*
X10813Y10106D01*
X10806Y10118D01*
X10798Y10128D01*
X10787Y10137D01*
X10775Y10143D01*
X10762Y10147D01*
X10748Y10149D01*
X10664D01*
X10658Y10152D01*
X10637Y10161D01*
X10614Y10167D01*
X10591Y10169D01*
D02*
G37*
G36*
X14735Y12908D02*
X14072D01*
Y11895D01*
X14255D01*
Y10641D01*
X14256Y10618D01*
X14262Y10595D01*
X14271Y10574D01*
X14283Y10554D01*
X14298Y10536D01*
X15246Y9588D01*
X15234Y9564D01*
X15223Y9532D01*
X15216Y9499D01*
X15212Y9466D01*
Y9432D01*
X15216Y9398D01*
X15223Y9366D01*
X15234Y9334D01*
X15249Y9303D01*
X15267Y9275D01*
X15288Y9249D01*
X15312Y9225D01*
X15338Y9204D01*
X15366Y9186D01*
X15397Y9171D01*
X15429Y9160D01*
X15461Y9153D01*
X15495Y9149D01*
X15529D01*
X15562Y9153D01*
X15591Y9159D01*
X15773Y8977D01*
X15772Y8976D01*
X15762Y8943D01*
X15756Y8910D01*
X15752Y8875D01*
Y8841D01*
X15756Y8807D01*
X15762Y8773D01*
X15772Y8740D01*
X15786Y8708D01*
X15802Y8678D01*
X15821Y8650D01*
X15843Y8623D01*
X15867Y8599D01*
X15894Y8577D01*
X15922Y8558D01*
X15953Y8541D01*
X15984Y8528D01*
X16017Y8518D01*
X16051Y8512D01*
X16085Y8508D01*
X16120D01*
X16154Y8512D01*
X16188Y8518D01*
X16220Y8528D01*
X16252Y8541D01*
X16283Y8558D01*
X16311Y8577D01*
X16338Y8599D01*
X16362Y8623D01*
X16384Y8650D01*
X16403Y8678D01*
X16419Y8708D01*
X16432Y8740D01*
X16442Y8773D01*
X16449Y8807D01*
X16452Y8841D01*
Y8875D01*
X16449Y8910D01*
X16442Y8943D01*
X16432Y8976D01*
X16419Y9008D01*
X16403Y9038D01*
X16384Y9067D01*
X16362Y9094D01*
X16338Y9118D01*
X16311Y9140D01*
X16283Y9159D01*
X16252Y9175D01*
X16220Y9188D01*
X16188Y9198D01*
X16154Y9205D01*
X16120Y9208D01*
X16085D01*
X16051Y9205D01*
X16017Y9198D01*
X15984Y9188D01*
X15983Y9188D01*
X15801Y9370D01*
X15808Y9398D01*
X15812Y9432D01*
Y9466D01*
X15808Y9499D01*
X15801Y9532D01*
X15789Y9564D01*
X15775Y9594D01*
X15757Y9623D01*
X15736Y9649D01*
X15712Y9673D01*
X15686Y9694D01*
X15657Y9712D01*
X15627Y9726D01*
X15595Y9738D01*
X15562Y9745D01*
X15529Y9749D01*
X15506D01*
X14552Y10703D01*
Y11895D01*
X14735D01*
Y12908D01*
D02*
G37*
G36*
X5592Y6675D02*
X5267D01*
Y6349D01*
X5592D01*
Y6675D01*
D02*
G37*
G36*
X5167D02*
X4841D01*
Y6349D01*
X5167D01*
Y6675D01*
D02*
G37*
G36*
X5592Y6249D02*
X5267D01*
Y5924D01*
X5592D01*
Y6249D01*
D02*
G37*
G36*
X5167D02*
X4841D01*
Y5924D01*
X5167D01*
Y6249D01*
D02*
G37*
G36*
X1476Y5277D02*
X1201D01*
X1163Y5261D01*
X1147Y5223D01*
Y5070D01*
X394D01*
X392Y5070D01*
X391Y5070D01*
X376Y5069D01*
X374Y5069D01*
X373Y5069D01*
X358Y5068D01*
X354Y5066D01*
X350Y5066D01*
X343Y5064D01*
X342Y5064D01*
X341Y5064D01*
X333Y5062D01*
X333Y5062D01*
X319Y5057D01*
X316Y5054D01*
X311Y5054D01*
X296Y5046D01*
X294Y5045D01*
X292Y5044D01*
X278Y5036D01*
X277Y5034D01*
X274Y5033D01*
X261Y5024D01*
X260Y5022D01*
X258Y5021D01*
X246Y5011D01*
X245Y5007D01*
X241Y5006D01*
X230Y4993D01*
X230Y4991D01*
X228Y4990D01*
X218Y4977D01*
X217Y4974D01*
X214Y4971D01*
X206Y4957D01*
X206Y4955D01*
X205Y4954D01*
X198Y4940D01*
X198Y4936D01*
X195Y4932D01*
X190Y4916D01*
X190Y4913D01*
X188Y4910D01*
X186Y4898D01*
X186Y4896D01*
X185Y4895D01*
X183Y4880D01*
X184Y4878D01*
X183Y4876D01*
X182Y4862D01*
X183Y4860D01*
X182Y4859D01*
Y4662D01*
X183Y4660D01*
X182Y4659D01*
X183Y4642D01*
X184Y4639D01*
X184Y4636D01*
X186Y4620D01*
X188Y4618D01*
X187Y4615D01*
X191Y4599D01*
X193Y4597D01*
X193Y4593D01*
X199Y4578D01*
X201Y4576D01*
X202Y4572D01*
X209Y4560D01*
X209Y4559D01*
X209Y4558D01*
X217Y4546D01*
X219Y4544D01*
X220Y4540D01*
X230Y4527D01*
X233Y4525D01*
X235Y4522D01*
X245Y4511D01*
X246Y4511D01*
X247Y4510D01*
X258Y4500D01*
X261Y4498D01*
X263Y4495D01*
X275Y4487D01*
X277Y4486D01*
X278Y4485D01*
X291Y4477D01*
X295Y4476D01*
X298Y4473D01*
X312Y4467D01*
X314Y4467D01*
X315Y4465D01*
X328Y4461D01*
X330Y4461D01*
X332Y4459D01*
X338Y4457D01*
X340Y4458D01*
X341Y4457D01*
X348Y4455D01*
X349Y4455D01*
X350Y4455D01*
X358Y4453D01*
X358Y4453D01*
X358Y4453D01*
X366Y4451D01*
X370Y4452D01*
X374Y4451D01*
X383Y4450D01*
X384Y4451D01*
X385Y4450D01*
X1476D01*
X1478Y4450D01*
X1485Y4428D01*
X1450Y4378D01*
X1337D01*
Y4249D01*
X1781D01*
Y4149D01*
X1337D01*
Y4020D01*
X1387D01*
Y3559D01*
Y3303D01*
Y3047D01*
X2176D01*
Y3074D01*
X2712D01*
X2908Y2878D01*
X2900Y2866D01*
X2880Y2790D01*
Y2711D01*
X2900Y2634D01*
X2940Y2566D01*
X2996Y2510D01*
X3064Y2470D01*
X3140Y2450D01*
X3219D01*
X3263Y2462D01*
X3847Y1877D01*
X3808Y1808D01*
X3784Y1719D01*
Y1627D01*
X3808Y1538D01*
X3854Y1458D01*
X3919Y1393D01*
X3999Y1347D01*
X4088Y1323D01*
X4180D01*
X4269Y1347D01*
X4349Y1393D01*
X4414Y1458D01*
X4460Y1538D01*
X4484Y1627D01*
Y1719D01*
X4460Y1808D01*
X4414Y1888D01*
X4349Y1953D01*
X4269Y1999D01*
X4180Y2023D01*
X4088D01*
X4010Y2002D01*
X3430Y2583D01*
X3460Y2634D01*
X3480Y2711D01*
Y2790D01*
X3460Y2866D01*
X3420Y2934D01*
X3364Y2990D01*
X3296Y3030D01*
X3219Y3050D01*
X3140D01*
X3064Y3030D01*
X3052Y3022D01*
X2827Y3248D01*
X2794Y3270D01*
X2754Y3277D01*
X2176D01*
Y3559D01*
Y4020D01*
X2226D01*
Y4055D01*
X2276Y4076D01*
X2447Y3905D01*
X2430Y3875D01*
X2407Y3790D01*
X2706D01*
Y4089D01*
X2621Y4066D01*
X2591Y4049D01*
X2369Y4271D01*
X2336Y4293D01*
X2297Y4301D01*
X2261D01*
X2226Y4336D01*
X2226Y4378D01*
X2201Y4428D01*
X2204Y4435D01*
Y5223D01*
X2188Y5261D01*
X2150Y5277D01*
X1575D01*
X1537Y5261D01*
X1487Y5272D01*
X1476Y5277D01*
D02*
G37*
G36*
X10643Y5121D02*
X10641D01*
Y4774D01*
X10987D01*
Y4777D01*
X10960Y4878D01*
X10908Y4968D01*
X10834Y5042D01*
X10744Y5094D01*
X10643Y5121D01*
D02*
G37*
G36*
X10541D02*
X10538D01*
X10437Y5094D01*
X10347Y5042D01*
X10273Y4968D01*
X10221Y4878D01*
X10194Y4777D01*
Y4774D01*
X10541D01*
Y5121D01*
D02*
G37*
G36*
X14636Y5071D02*
X14545D01*
X14457Y5048D01*
X14378Y5002D01*
X14313Y4937D01*
X14267Y4858D01*
X14244Y4770D01*
Y4679D01*
X14267Y4591D01*
X14313Y4511D01*
X14378Y4447D01*
X14457Y4401D01*
X14545Y4378D01*
X14636D01*
X14724Y4401D01*
X14804Y4447D01*
X14868Y4511D01*
X14914Y4591D01*
X14937Y4679D01*
Y4770D01*
X14914Y4858D01*
X14868Y4937D01*
X14804Y5002D01*
X14724Y5048D01*
X14636Y5071D01*
D02*
G37*
G36*
X11636D02*
X11545D01*
X11457Y5048D01*
X11378Y5002D01*
X11313Y4937D01*
X11267Y4858D01*
X11244Y4770D01*
Y4679D01*
X11262Y4610D01*
X9149Y2497D01*
X9116Y2448D01*
X9105Y2390D01*
X9105Y2390D01*
Y2266D01*
X9081Y2250D01*
X9061Y2221D01*
X9055Y2187D01*
Y2120D01*
X8784D01*
Y2187D01*
X8777Y2221D01*
X8758Y2250D01*
X8729Y2269D01*
X8695Y2276D01*
X8470D01*
X8436Y2269D01*
X8407Y2250D01*
X8388Y2221D01*
X8381Y2187D01*
Y1750D01*
X8388Y1716D01*
X8407Y1687D01*
X8436Y1668D01*
X8470Y1661D01*
X8695D01*
X8729Y1668D01*
X8758Y1687D01*
X8777Y1716D01*
X8784Y1750D01*
Y1817D01*
X9055D01*
Y1750D01*
X9061Y1716D01*
X9081Y1687D01*
X9110Y1668D01*
X9144Y1661D01*
X9368D01*
X9402Y1668D01*
X9431Y1687D01*
X9450Y1716D01*
X9457Y1750D01*
Y2187D01*
X9450Y2221D01*
X9431Y2250D01*
X9407Y2266D01*
Y2327D01*
X11476Y4396D01*
X11545Y4378D01*
X11636D01*
X11724Y4401D01*
X11804Y4447D01*
X11868Y4511D01*
X11914Y4591D01*
X11937Y4679D01*
Y4770D01*
X11914Y4858D01*
X11868Y4937D01*
X11804Y5002D01*
X11724Y5048D01*
X11636Y5071D01*
D02*
G37*
G36*
X9636D02*
X9545D01*
X9457Y5048D01*
X9378Y5002D01*
X9313Y4937D01*
X9267Y4858D01*
X9244Y4770D01*
Y4679D01*
X9267Y4591D01*
X9313Y4511D01*
X9378Y4447D01*
X9457Y4401D01*
X9545Y4378D01*
X9636D01*
X9724Y4401D01*
X9804Y4447D01*
X9868Y4511D01*
X9914Y4591D01*
X9937Y4679D01*
Y4770D01*
X9914Y4858D01*
X9868Y4937D01*
X9804Y5002D01*
X9724Y5048D01*
X9636Y5071D01*
D02*
G37*
G36*
X8636D02*
X8545D01*
X8457Y5048D01*
X8378Y5002D01*
X8313Y4937D01*
X8267Y4858D01*
X8244Y4770D01*
Y4679D01*
X8267Y4591D01*
X8313Y4511D01*
X8378Y4447D01*
X8457Y4401D01*
X8545Y4378D01*
X8636D01*
X8724Y4401D01*
X8804Y4447D01*
X8868Y4511D01*
X8914Y4591D01*
X8937Y4679D01*
Y4770D01*
X8914Y4858D01*
X8868Y4937D01*
X8804Y5002D01*
X8724Y5048D01*
X8636Y5071D01*
D02*
G37*
G36*
X10987Y4674D02*
X10641D01*
Y4328D01*
X10643D01*
X10744Y4355D01*
X10834Y4407D01*
X10908Y4481D01*
X10960Y4571D01*
X10987Y4672D01*
Y4674D01*
D02*
G37*
G36*
X10541D02*
X10194D01*
Y4672D01*
X10221Y4571D01*
X10273Y4481D01*
X10347Y4407D01*
X10437Y4355D01*
X10538Y4328D01*
X10541D01*
Y4674D01*
D02*
G37*
G36*
X5259Y4656D02*
X5174D01*
X5091Y4634D01*
X5017Y4591D01*
X4956Y4531D01*
X4913Y4456D01*
X4891Y4374D01*
Y4288D01*
X4913Y4205D01*
X4956Y4131D01*
X5017Y4070D01*
X5091Y4027D01*
X5174Y4005D01*
X5259D01*
X5342Y4027D01*
X5416Y4070D01*
X5477Y4131D01*
X5520Y4205D01*
X5542Y4288D01*
Y4374D01*
X5520Y4456D01*
X5477Y4531D01*
X5416Y4591D01*
X5342Y4634D01*
X5259Y4656D01*
D02*
G37*
G36*
X2806Y4089D02*
Y3790D01*
X3105D01*
X3082Y3875D01*
X3036Y3955D01*
X2971Y4020D01*
X2891Y4066D01*
X2806Y4089D01*
D02*
G37*
G36*
X3105Y3690D02*
X2806D01*
Y3391D01*
X2891Y3414D01*
X2971Y3460D01*
X3036Y3525D01*
X3082Y3605D01*
X3105Y3690D01*
D02*
G37*
G36*
X2706D02*
X2407D01*
X2430Y3605D01*
X2476Y3525D01*
X2541Y3460D01*
X2621Y3414D01*
X2706Y3391D01*
Y3690D01*
D02*
G37*
G36*
X2150Y2993D02*
X1575D01*
X1537Y2977D01*
X1521Y2939D01*
X1476Y2925D01*
X385D01*
X384Y2924D01*
X383Y2924D01*
X374Y2924D01*
X370Y2922D01*
X366Y2923D01*
X358Y2922D01*
X358Y2921D01*
X358Y2921D01*
X350Y2920D01*
X349Y2919D01*
X348Y2920D01*
X341Y2918D01*
X340Y2917D01*
X338Y2917D01*
X332Y2915D01*
X330Y2914D01*
X328Y2914D01*
X315Y2909D01*
X314Y2908D01*
X312Y2908D01*
X298Y2902D01*
X295Y2899D01*
X291Y2898D01*
X278Y2889D01*
X277Y2888D01*
X275Y2888D01*
X263Y2880D01*
X261Y2876D01*
X258Y2875D01*
X247Y2865D01*
X246Y2864D01*
X245Y2863D01*
X235Y2853D01*
X233Y2849D01*
X230Y2847D01*
X220Y2834D01*
X219Y2831D01*
X217Y2829D01*
X210Y2817D01*
X209Y2816D01*
X209Y2815D01*
X202Y2802D01*
X201Y2799D01*
X199Y2797D01*
X193Y2781D01*
X193Y2778D01*
X191Y2776D01*
X187Y2760D01*
X188Y2757D01*
X186Y2755D01*
X184Y2738D01*
X184Y2735D01*
X183Y2732D01*
X182Y2715D01*
X183Y2714D01*
X182Y2713D01*
Y2516D01*
X183Y2515D01*
X182Y2513D01*
X183Y2499D01*
X184Y2496D01*
X183Y2494D01*
X185Y2480D01*
X186Y2478D01*
X186Y2477D01*
X188Y2464D01*
X190Y2462D01*
X190Y2458D01*
X195Y2442D01*
X198Y2439D01*
X198Y2435D01*
X205Y2420D01*
X206Y2419D01*
X206Y2418D01*
X214Y2404D01*
X217Y2401D01*
X218Y2397D01*
X228Y2384D01*
X230Y2383D01*
X230Y2381D01*
X241Y2369D01*
X245Y2367D01*
X246Y2364D01*
X258Y2354D01*
X260Y2353D01*
X261Y2351D01*
X274Y2342D01*
X277Y2341D01*
X278Y2339D01*
X292Y2330D01*
X294Y2330D01*
X296Y2328D01*
X311Y2321D01*
X316Y2320D01*
X319Y2317D01*
X333Y2313D01*
X333Y2313D01*
X341Y2311D01*
X342Y2311D01*
X343Y2310D01*
X350Y2308D01*
X354Y2309D01*
X358Y2307D01*
X373Y2306D01*
X374Y2306D01*
X376Y2305D01*
X391Y2305D01*
X392Y2305D01*
X394Y2304D01*
X1147D01*
Y2152D01*
X1163Y2114D01*
X1201Y2098D01*
X1476D01*
X1515Y2114D01*
X1564Y2102D01*
X1575Y2098D01*
X2150D01*
X2188Y2113D01*
X2204Y2152D01*
Y2939D01*
X2188Y2977D01*
X2150Y2993D01*
D02*
G37*
G36*
X4187Y3057D02*
X4184D01*
Y2707D01*
X4534D01*
Y2710D01*
X4507Y2812D01*
X4454Y2903D01*
X4379Y2978D01*
X4288Y3030D01*
X4187Y3057D01*
D02*
G37*
G36*
X4084D02*
X4081D01*
X3979Y3030D01*
X3888Y2978D01*
X3814Y2903D01*
X3761Y2812D01*
X3734Y2710D01*
Y2707D01*
X4084D01*
Y3057D01*
D02*
G37*
G36*
X10827Y3056D02*
X10748D01*
X10672Y3035D01*
X10603Y2996D01*
X10547Y2940D01*
X10508Y2872D01*
X10487Y2795D01*
Y2716D01*
X10508Y2640D01*
X10547Y2572D01*
X10603Y2516D01*
X10672Y2476D01*
X10748Y2456D01*
X10827D01*
X10903Y2476D01*
X10972Y2516D01*
X11019Y2563D01*
X11464D01*
Y2561D01*
X11471Y2527D01*
X11490Y2498D01*
X11519Y2479D01*
X11553Y2472D01*
X11990D01*
X12024Y2479D01*
X12053Y2498D01*
X12072Y2527D01*
X12079Y2561D01*
Y2785D01*
X12072Y2820D01*
X12053Y2848D01*
X12024Y2868D01*
X11990Y2875D01*
X11553D01*
X11519Y2868D01*
X11516Y2866D01*
X11069D01*
X11067Y2872D01*
X11027Y2940D01*
X10972Y2996D01*
X10903Y3035D01*
X10827Y3056D01*
D02*
G37*
G36*
X4534Y2607D02*
X4184D01*
Y2257D01*
X4187D01*
X4288Y2285D01*
X4379Y2337D01*
X4454Y2412D01*
X4507Y2503D01*
X4534Y2605D01*
Y2607D01*
D02*
G37*
G36*
X4084D02*
X3734D01*
Y2605D01*
X3761Y2503D01*
X3814Y2412D01*
X3888Y2337D01*
X3979Y2285D01*
X4081Y2257D01*
X4084D01*
Y2607D01*
D02*
G37*
G36*
X7990Y2276D02*
X7766D01*
X7732Y2269D01*
X7703Y2250D01*
X7683Y2221D01*
X7677Y2187D01*
Y2120D01*
X7306D01*
X7287Y2153D01*
X7231Y2209D01*
X7163Y2248D01*
X7087Y2269D01*
X7008D01*
X6931Y2248D01*
X6863Y2209D01*
X6807Y2153D01*
X6768Y2084D01*
X6747Y2008D01*
Y1929D01*
X6768Y1853D01*
X6807Y1784D01*
X6863Y1728D01*
X6931Y1689D01*
X7008Y1669D01*
X7087D01*
X7163Y1689D01*
X7231Y1728D01*
X7287Y1784D01*
X7306Y1817D01*
X7677D01*
Y1750D01*
X7683Y1716D01*
X7703Y1687D01*
X7732Y1668D01*
X7766Y1661D01*
X7990D01*
X8024Y1668D01*
X8053Y1687D01*
X8072Y1716D01*
X8079Y1750D01*
Y2187D01*
X8072Y2221D01*
X8053Y2250D01*
X8024Y2269D01*
X7990Y2276D01*
D02*
G37*
G36*
X10073Y2327D02*
X10011D01*
Y2018D01*
X10213D01*
Y2187D01*
X10202Y2241D01*
X10172Y2286D01*
X10126Y2316D01*
X10073Y2327D01*
D02*
G37*
G36*
X9911D02*
X9848D01*
X9795Y2316D01*
X9749Y2286D01*
X9719Y2241D01*
X9708Y2187D01*
Y2018D01*
X9911D01*
Y2327D01*
D02*
G37*
G36*
X10558Y2179D02*
X10534D01*
X10486Y2170D01*
X10445Y2142D01*
X10417Y2101D01*
X10407Y2052D01*
Y2018D01*
X10558D01*
Y2179D01*
D02*
G37*
G36*
X10682D02*
X10658D01*
Y1969D01*
Y1758D01*
X10682D01*
X10731Y1767D01*
X10772Y1795D01*
X10787Y1818D01*
X10811Y1824D01*
X10841Y1827D01*
X10848Y1825D01*
X10864Y1815D01*
X10893Y1809D01*
X11040D01*
X11069Y1815D01*
X11073Y1817D01*
X11474D01*
X11490Y1793D01*
X11519Y1774D01*
X11553Y1767D01*
X11990D01*
X12024Y1774D01*
X12053Y1793D01*
X12072Y1822D01*
X12079Y1856D01*
Y2081D01*
X12072Y2115D01*
X12053Y2144D01*
X12024Y2163D01*
X11990Y2170D01*
X11553D01*
X11519Y2163D01*
X11490Y2144D01*
X11474Y2120D01*
X11073D01*
X11069Y2122D01*
X11040Y2128D01*
X10893D01*
X10864Y2122D01*
X10848Y2112D01*
X10841Y2110D01*
X10811Y2113D01*
X10787Y2119D01*
X10772Y2142D01*
X10731Y2170D01*
X10682Y2179D01*
D02*
G37*
G36*
X10558Y1919D02*
X10407D01*
Y1885D01*
X10417Y1836D01*
X10445Y1795D01*
X10486Y1767D01*
X10534Y1758D01*
X10558D01*
Y1919D01*
D02*
G37*
G36*
X10213Y1919D02*
X10011D01*
Y1610D01*
X10073D01*
X10126Y1621D01*
X10172Y1651D01*
X10202Y1696D01*
X10213Y1750D01*
Y1919D01*
D02*
G37*
G36*
X9911D02*
X9708D01*
Y1750D01*
X9719Y1696D01*
X9749Y1651D01*
X9795Y1621D01*
X9848Y1610D01*
X9911D01*
Y1919D01*
D02*
G37*
G36*
X18961Y1625D02*
X18835D01*
X18711Y1600D01*
X18594Y1552D01*
X18489Y1482D01*
X18400Y1393D01*
X18330Y1288D01*
X18282Y1171D01*
X18257Y1047D01*
Y921D01*
X18282Y797D01*
X18330Y681D01*
X18400Y576D01*
X18489Y487D01*
X18594Y417D01*
X18711Y368D01*
X18835Y344D01*
X18961D01*
X19084Y368D01*
X19201Y417D01*
X19306Y487D01*
X19395Y576D01*
X19465Y681D01*
X19514Y797D01*
X19538Y921D01*
Y1047D01*
X19514Y1171D01*
X19465Y1288D01*
X19395Y1393D01*
X19306Y1482D01*
X19201Y1552D01*
X19084Y1600D01*
X18961Y1625D01*
D02*
G37*
G36*
X1047D02*
X921D01*
X797Y1600D01*
X681Y1552D01*
X576Y1482D01*
X487Y1393D01*
X417Y1288D01*
X368Y1171D01*
X344Y1047D01*
Y921D01*
X368Y797D01*
X417Y681D01*
X487Y576D01*
X576Y487D01*
X681Y417D01*
X797Y368D01*
X921Y344D01*
X1047D01*
X1171Y368D01*
X1288Y417D01*
X1393Y487D01*
X1482Y576D01*
X1552Y681D01*
X1600Y797D01*
X1625Y921D01*
Y1047D01*
X1600Y1171D01*
X1552Y1288D01*
X1482Y1393D01*
X1393Y1482D01*
X1288Y1552D01*
X1171Y1600D01*
X1047Y1625D01*
D02*
G37*
%LPD*%
G36*
X1476Y4504D02*
X385D01*
X376Y4505D01*
X368Y4506D01*
X360Y4508D01*
X354Y4509D01*
X347Y4511D01*
X334Y4516D01*
X320Y4522D01*
X306Y4531D01*
X294Y4539D01*
X283Y4550D01*
X273Y4560D01*
X263Y4573D01*
X256Y4585D01*
X250Y4598D01*
X244Y4613D01*
X240Y4628D01*
X237Y4645D01*
X236Y4662D01*
Y4859D01*
X237Y4873D01*
X239Y4888D01*
X241Y4900D01*
X246Y4916D01*
X254Y4931D01*
X261Y4945D01*
X271Y4958D01*
X282Y4970D01*
X294Y4980D01*
X306Y4990D01*
X320Y4998D01*
X335Y5005D01*
X349Y5010D01*
X356Y5012D01*
X363Y5014D01*
X378Y5015D01*
X394Y5016D01*
X1201D01*
Y5223D01*
X1476D01*
Y4504D01*
D02*
G37*
G36*
X1476Y2152D02*
X1201D01*
Y2359D01*
X394D01*
X378Y2359D01*
X363Y2361D01*
X356Y2363D01*
X349Y2365D01*
X335Y2369D01*
X320Y2377D01*
X306Y2385D01*
X294Y2394D01*
X282Y2405D01*
X271Y2417D01*
X261Y2430D01*
X254Y2444D01*
X246Y2459D01*
X241Y2475D01*
X239Y2487D01*
X237Y2501D01*
X236Y2516D01*
Y2713D01*
X237Y2730D01*
X240Y2746D01*
X244Y2762D01*
X250Y2777D01*
X256Y2790D01*
X263Y2802D01*
X273Y2815D01*
X283Y2825D01*
X294Y2835D01*
X306Y2844D01*
X320Y2852D01*
X334Y2859D01*
X347Y2863D01*
X354Y2865D01*
X360Y2867D01*
X368Y2868D01*
X376Y2870D01*
X385Y2870D01*
X1476D01*
Y2152D01*
D02*
G37*
D15*
X3180Y2689D02*
X4134Y1735D01*
X3180Y2689D02*
Y2750D01*
X4134Y1673D02*
Y1735D01*
X2297Y4199D02*
X2756Y3740D01*
X1781Y4199D02*
X2297D01*
X1781Y3176D02*
X2754D01*
X3180Y2750D01*
X10787Y2756D02*
X10829Y2715D01*
X11728Y12402D02*
X11750Y12380D01*
Y11636D02*
X11772Y11614D01*
X11575Y9882D02*
X11577Y9884D01*
X12559Y9055D02*
X12559D01*
X15512Y9449D02*
Y9449D01*
X9959Y1967D02*
X9961Y1969D01*
X13470Y9569D02*
Y9646D01*
X13239Y9338D02*
X13470Y9569D01*
X10967Y1969D02*
X10967Y1969D01*
X11730Y2715D02*
X11772Y2673D01*
X15512Y9449D02*
Y9533D01*
D16*
X14484Y5831D02*
Y8161D01*
Y5831D02*
X15591Y4724D01*
X10591Y9055D02*
Y10020D01*
X9256Y2390D02*
X11591Y4724D01*
X14484Y8161D02*
X14969Y7677D01*
X16102D01*
X13591Y4841D02*
X13780Y5030D01*
Y8268D01*
X14344Y9449D02*
X14484Y9309D01*
Y8161D02*
Y9309D01*
X11750Y11636D02*
Y12380D01*
X10179Y12402D02*
X11024D01*
X11024Y12402D01*
X7047Y8071D02*
X8228Y9252D01*
X6457Y8071D02*
X7047D01*
X12559Y9055D02*
X12842Y9338D01*
X13239D01*
X11575Y9055D02*
Y9882D01*
X14404Y10641D02*
Y12402D01*
X13591Y4724D02*
Y4841D01*
X7047Y1969D02*
X7878D01*
X9256D02*
Y2390D01*
X10829Y2715D02*
X11730D01*
X8583Y1969D02*
X9256D01*
X10967D02*
X11772D01*
X15512Y9449D02*
X16102Y8858D01*
X12559Y12402D02*
X13470D01*
X14404Y10641D02*
X15512Y9533D01*
D17*
X1781Y3687D02*
D03*
Y3943D02*
D03*
Y4199D02*
D03*
Y3431D02*
D03*
Y3176D02*
D03*
D18*
X571Y4066D02*
D03*
Y3308D02*
D03*
D19*
X14404Y12402D02*
D03*
X13470D02*
D03*
X14344Y9449D02*
D03*
X13411D02*
D03*
D20*
X13780Y8268D02*
D03*
X14484D02*
D03*
X11728Y12402D02*
D03*
X11024D02*
D03*
X9961Y1969D02*
D03*
X9256D02*
D03*
X7878D02*
D03*
X8583D02*
D03*
D21*
X11772Y2673D02*
D03*
Y1969D02*
D03*
X11575Y9882D02*
D03*
Y10587D02*
D03*
D22*
X10608Y1969D02*
D03*
X10967D02*
D03*
X9821Y12402D02*
D03*
X10179D02*
D03*
D23*
X10591Y10453D02*
D03*
Y10020D02*
D03*
D24*
X4134Y2657D02*
D03*
Y1673D02*
D03*
X16102Y8858D02*
D03*
Y7677D02*
D03*
X6457Y8071D02*
D03*
Y12402D02*
D03*
D25*
X1862Y2545D02*
D03*
Y4829D02*
D03*
D45*
X5217Y4331D02*
D03*
X8228Y9252D02*
D03*
D46*
X5217Y6299D02*
D03*
X8228Y11220D02*
D03*
D47*
X1644Y10384D02*
D03*
D48*
X3337D02*
D03*
D49*
X4518D02*
D03*
D50*
X15591Y4724D02*
D03*
D51*
X14591D02*
D03*
X13591D02*
D03*
X11591D02*
D03*
X10591D02*
D03*
X9591D02*
D03*
X8591D02*
D03*
D52*
X669Y2614D02*
D03*
Y4760D02*
D03*
D53*
X1862Y2733D02*
D03*
Y4642D02*
D03*
D54*
X2756Y3740D02*
D03*
X3180Y2750D02*
D03*
X10591Y9055D02*
D03*
X10787Y2756D02*
D03*
X15512Y9449D02*
D03*
X11772Y11614D02*
D03*
X11575Y9055D02*
D03*
X12559Y12402D02*
D03*
Y9055D02*
D03*
X7047Y1969D02*
D03*
D55*
X984Y14173D02*
D03*
X18898D02*
D03*
Y984D02*
D03*
X984D02*
D03*
M02*
