G04*
G04 #@! TF.GenerationSoftware,Altium Limited,Altium Designer,21.7.1 (17)*
G04*
G04 Layer_Color=16711935*
%FSLAX25Y25*%
%MOIN*%
G70*
G04*
G04 #@! TF.SameCoordinates,6A9AB2AD-3E5E-4466-BBF7-A39550D9A4E3*
G04*
G04*
G04 #@! TF.FilePolarity,Negative*
G04*
G01*
G75*
%ADD27R,0.06737X0.06737*%
%ADD28C,0.06737*%
%ADD29O,0.07493X0.05524*%
%ADD30O,0.06312X0.04737*%
%ADD31R,0.11430X0.11430*%
%ADD32C,0.11430*%
%ADD33C,0.13398*%
%ADD34R,0.06312X0.06312*%
%ADD35C,0.06312*%
%ADD36C,0.12611*%
%ADD37C,0.05800*%
D27*
X155905Y47244D02*
D03*
D28*
X145905D02*
D03*
X135906D02*
D03*
X115905D02*
D03*
X105905D02*
D03*
X95906D02*
D03*
X85905D02*
D03*
D29*
X7579Y25492D02*
D03*
Y46949D02*
D03*
D30*
X19508Y26673D02*
D03*
Y45768D02*
D03*
D31*
X52165Y88189D02*
D03*
D32*
Y104724D02*
D03*
D33*
X35630Y122441D02*
D03*
Y70472D02*
D03*
D34*
X82284Y112205D02*
D03*
D35*
Y92520D02*
D03*
D36*
X9843Y141732D02*
D03*
X188976D02*
D03*
Y9843D02*
D03*
X9843D02*
D03*
D37*
X105905Y90551D02*
D03*
X155118Y94488D02*
D03*
X117717Y116142D02*
D03*
X115748Y90551D02*
D03*
X125591Y124016D02*
D03*
Y90551D02*
D03*
X107874Y27559D02*
D03*
X29232Y27461D02*
D03*
Y45177D02*
D03*
X70472Y19685D02*
D03*
M02*
