G04*
G04 #@! TF.GenerationSoftware,Altium Limited,Altium Designer,21.7.1 (17)*
G04*
G04 Layer_Color=8388736*
%FSLAX24Y24*%
%MOIN*%
G70*
G04*
G04 #@! TF.SameCoordinates,156F93F5-282F-4AE9-AA7B-D440BB6AA61E*
G04*
G04*
G04 #@! TF.FilePolarity,Negative*
G04*
G01*
G75*
%ADD26R,0.0769X0.0237*%
%ADD27R,0.1064X0.0641*%
%ADD28R,0.0643X0.0993*%
G04:AMPARAMS|DCode=29|XSize=59.2mil|YSize=37.9mil|CornerRadius=7.7mil|HoleSize=0mil|Usage=FLASHONLY|Rotation=90.000|XOffset=0mil|YOffset=0mil|HoleType=Round|Shape=RoundedRectangle|*
%AMROUNDEDRECTD29*
21,1,0.0592,0.0224,0,0,90.0*
21,1,0.0437,0.0379,0,0,90.0*
1,1,0.0155,0.0112,0.0219*
1,1,0.0155,0.0112,-0.0219*
1,1,0.0155,-0.0112,-0.0219*
1,1,0.0155,-0.0112,0.0219*
%
%ADD29ROUNDEDRECTD29*%
G04:AMPARAMS|DCode=30|XSize=59.2mil|YSize=37.9mil|CornerRadius=7.7mil|HoleSize=0mil|Usage=FLASHONLY|Rotation=180.000|XOffset=0mil|YOffset=0mil|HoleType=Round|Shape=RoundedRectangle|*
%AMROUNDEDRECTD30*
21,1,0.0592,0.0224,0,0,180.0*
21,1,0.0437,0.0379,0,0,180.0*
1,1,0.0155,-0.0219,0.0112*
1,1,0.0155,0.0219,0.0112*
1,1,0.0155,0.0219,-0.0112*
1,1,0.0155,-0.0219,-0.0112*
%
%ADD30ROUNDEDRECTD30*%
G04:AMPARAMS|DCode=31|XSize=29.7mil|YSize=27.7mil|CornerRadius=6.5mil|HoleSize=0mil|Usage=FLASHONLY|Rotation=270.000|XOffset=0mil|YOffset=0mil|HoleType=Round|Shape=RoundedRectangle|*
%AMROUNDEDRECTD31*
21,1,0.0297,0.0148,0,0,270.0*
21,1,0.0167,0.0277,0,0,270.0*
1,1,0.0129,-0.0074,-0.0084*
1,1,0.0129,-0.0074,0.0084*
1,1,0.0129,0.0074,0.0084*
1,1,0.0129,0.0074,-0.0084*
%
%ADD31ROUNDEDRECTD31*%
G04:AMPARAMS|DCode=32|XSize=23.7mil|YSize=43.4mil|CornerRadius=6mil|HoleSize=0mil|Usage=FLASHONLY|Rotation=270.000|XOffset=0mil|YOffset=0mil|HoleType=Round|Shape=RoundedRectangle|*
%AMROUNDEDRECTD32*
21,1,0.0237,0.0315,0,0,270.0*
21,1,0.0118,0.0434,0,0,270.0*
1,1,0.0119,-0.0157,-0.0059*
1,1,0.0119,-0.0157,0.0059*
1,1,0.0119,0.0157,0.0059*
1,1,0.0119,0.0157,-0.0059*
%
%ADD32ROUNDEDRECTD32*%
%ADD33C,0.0680*%
%ADD34R,0.0655X0.0867*%
%ADD35C,0.0631*%
%ADD36R,0.0631X0.0631*%
%ADD37C,0.1261*%
%ADD38R,0.0678X0.0678*%
%ADD39C,0.0678*%
%ADD40R,0.0674X0.0674*%
%ADD41C,0.0674*%
%ADD42O,0.0749X0.0552*%
%ADD43O,0.0631X0.0474*%
%ADD44C,0.1261*%
G36*
X1482Y2910D02*
X1487Y2909D01*
X1492Y2907D01*
X1496Y2905D01*
X1501Y2902D01*
X1505Y2899D01*
X1508Y2895D01*
X1511Y2890D01*
X1513Y2886D01*
X1515Y2881D01*
X1516Y2876D01*
X1516Y2870D01*
Y2152D01*
X1516Y2147D01*
X1515Y2142D01*
X1513Y2137D01*
X1511Y2132D01*
X1508Y2128D01*
X1505Y2124D01*
X1501Y2120D01*
X1496Y2117D01*
X1492Y2115D01*
X1487Y2113D01*
X1482Y2112D01*
X1476Y2112D01*
X1201D01*
X1196Y2112D01*
X1190Y2113D01*
X1185Y2115D01*
X1181Y2117D01*
X1176Y2120D01*
X1172Y2124D01*
X1169Y2128D01*
X1166Y2132D01*
X1164Y2137D01*
X1162Y2142D01*
X1161Y2147D01*
X1161Y2152D01*
Y2318D01*
X394D01*
X393Y2319D01*
X392Y2319D01*
X376Y2319D01*
X375Y2319D01*
X374Y2320D01*
X359Y2321D01*
X359Y2321D01*
X359Y2321D01*
X356Y2322D01*
X354Y2322D01*
X354Y2322D01*
X354Y2322D01*
X347Y2324D01*
X346Y2324D01*
X345Y2324D01*
X337Y2327D01*
X337Y2327D01*
X323Y2331D01*
X323Y2331D01*
X322Y2331D01*
X320Y2332D01*
X318Y2333D01*
X318Y2333D01*
X317Y2333D01*
X302Y2341D01*
X301Y2342D01*
X299Y2342D01*
X286Y2351D01*
X284Y2352D01*
X282Y2353D01*
X270Y2362D01*
X269Y2363D01*
X267Y2364D01*
X256Y2374D01*
X256Y2374D01*
X255Y2375D01*
X254Y2376D01*
X252Y2378D01*
X252Y2378D01*
X252Y2378D01*
X241Y2391D01*
X240Y2392D01*
X239Y2393D01*
X229Y2406D01*
X229Y2406D01*
X229Y2406D01*
X228Y2408D01*
X227Y2410D01*
X226Y2410D01*
X226Y2410D01*
X218Y2425D01*
X218Y2426D01*
X217Y2426D01*
X210Y2441D01*
X210Y2441D01*
X210Y2442D01*
X209Y2444D01*
X208Y2446D01*
X208Y2446D01*
X208Y2446D01*
X203Y2463D01*
X203Y2465D01*
X202Y2467D01*
X200Y2479D01*
X199Y2480D01*
X199Y2482D01*
X197Y2496D01*
X197Y2498D01*
X197Y2499D01*
X196Y2514D01*
X196Y2515D01*
X196Y2516D01*
Y2713D01*
X196Y2714D01*
X196Y2715D01*
X197Y2732D01*
X197Y2734D01*
X197Y2736D01*
X200Y2752D01*
X200Y2754D01*
X201Y2756D01*
X205Y2772D01*
X206Y2774D01*
X206Y2776D01*
X212Y2791D01*
X213Y2794D01*
X214Y2796D01*
X221Y2808D01*
X221Y2809D01*
X222Y2810D01*
X229Y2822D01*
X230Y2824D01*
X231Y2826D01*
X241Y2839D01*
X241Y2839D01*
X241Y2839D01*
X243Y2841D01*
X244Y2843D01*
X245Y2843D01*
X245Y2843D01*
X255Y2853D01*
X256Y2854D01*
X256Y2855D01*
X267Y2865D01*
X267Y2865D01*
X267Y2865D01*
X269Y2866D01*
X271Y2868D01*
X271Y2868D01*
X271Y2868D01*
X283Y2876D01*
X284Y2877D01*
X285Y2878D01*
X299Y2886D01*
X299Y2886D01*
X299Y2886D01*
X301Y2888D01*
X303Y2889D01*
X304Y2889D01*
X304Y2889D01*
X318Y2895D01*
X319Y2896D01*
X320Y2896D01*
X333Y2901D01*
X334Y2901D01*
X336Y2902D01*
X342Y2904D01*
X343Y2904D01*
X344Y2904D01*
X351Y2906D01*
X352Y2906D01*
X352Y2906D01*
X360Y2908D01*
X360Y2908D01*
X361Y2908D01*
X369Y2909D01*
X369Y2909D01*
X369Y2909D01*
X372Y2910D01*
X374Y2910D01*
X374Y2910D01*
X375Y2910D01*
X383Y2910D01*
X384Y2910D01*
X385Y2910D01*
X1476D01*
X1482Y2910D01*
D02*
G37*
G36*
X1482Y5263D02*
X1487Y5261D01*
X1492Y5260D01*
X1496Y5257D01*
X1501Y5255D01*
X1505Y5251D01*
X1508Y5247D01*
X1511Y5243D01*
X1513Y5238D01*
X1515Y5233D01*
X1516Y5228D01*
X1516Y5223D01*
Y4504D01*
X1516Y4499D01*
X1515Y4494D01*
X1513Y4489D01*
X1511Y4484D01*
X1508Y4480D01*
X1505Y4476D01*
X1501Y4472D01*
X1496Y4470D01*
X1492Y4467D01*
X1487Y4466D01*
X1482Y4465D01*
X1476Y4464D01*
X385D01*
X384Y4464D01*
X383Y4464D01*
X375Y4465D01*
X374Y4465D01*
X374Y4465D01*
X372Y4465D01*
X369Y4465D01*
X369Y4465D01*
X369Y4465D01*
X361Y4467D01*
X360Y4467D01*
X360Y4467D01*
X352Y4468D01*
X352Y4469D01*
X351Y4469D01*
X344Y4470D01*
X343Y4471D01*
X342Y4471D01*
X336Y4473D01*
X334Y4473D01*
X333Y4474D01*
X320Y4479D01*
X319Y4479D01*
X318Y4479D01*
X304Y4486D01*
X304Y4486D01*
X303Y4486D01*
X301Y4487D01*
X299Y4488D01*
X299Y4488D01*
X299Y4488D01*
X285Y4497D01*
X284Y4498D01*
X283Y4498D01*
X271Y4506D01*
X271Y4507D01*
X271Y4507D01*
X269Y4508D01*
X267Y4510D01*
X267Y4510D01*
X267Y4510D01*
X256Y4520D01*
X256Y4521D01*
X255Y4521D01*
X245Y4532D01*
X245Y4532D01*
X244Y4532D01*
X243Y4534D01*
X241Y4536D01*
X241Y4536D01*
X241Y4536D01*
X231Y4549D01*
X230Y4551D01*
X229Y4553D01*
X222Y4565D01*
X221Y4566D01*
X221Y4566D01*
X214Y4579D01*
X213Y4581D01*
X212Y4583D01*
X206Y4599D01*
X206Y4601D01*
X205Y4603D01*
X201Y4618D01*
X200Y4620D01*
X200Y4622D01*
X197Y4639D01*
X197Y4641D01*
X197Y4643D01*
X196Y4660D01*
X196Y4661D01*
X196Y4662D01*
Y4859D01*
X196Y4860D01*
X196Y4861D01*
X197Y4875D01*
X197Y4877D01*
X197Y4879D01*
X199Y4893D01*
X199Y4894D01*
X200Y4895D01*
X202Y4908D01*
X203Y4910D01*
X203Y4912D01*
X208Y4928D01*
X208Y4928D01*
X208Y4929D01*
X209Y4931D01*
X210Y4933D01*
X210Y4933D01*
X210Y4934D01*
X217Y4948D01*
X218Y4949D01*
X218Y4950D01*
X226Y4964D01*
X226Y4964D01*
X227Y4965D01*
X228Y4967D01*
X229Y4969D01*
X229Y4969D01*
X229Y4969D01*
X239Y4982D01*
X240Y4983D01*
X241Y4984D01*
X252Y4996D01*
X252Y4996D01*
X252Y4997D01*
X254Y4998D01*
X255Y5000D01*
X256Y5000D01*
X256Y5000D01*
X267Y5011D01*
X269Y5011D01*
X270Y5012D01*
X282Y5022D01*
X284Y5023D01*
X286Y5024D01*
X299Y5032D01*
X301Y5033D01*
X302Y5034D01*
X317Y5041D01*
X318Y5042D01*
X318Y5042D01*
X320Y5043D01*
X322Y5043D01*
X323Y5044D01*
X323Y5044D01*
X337Y5048D01*
X337Y5048D01*
X345Y5050D01*
X346Y5051D01*
X347Y5051D01*
X354Y5053D01*
X354Y5053D01*
X354Y5053D01*
X356Y5053D01*
X359Y5054D01*
X359Y5054D01*
X359Y5054D01*
X374Y5055D01*
X375Y5055D01*
X376Y5055D01*
X392Y5056D01*
X393Y5056D01*
X394Y5056D01*
X1161D01*
Y5223D01*
X1161Y5228D01*
X1162Y5233D01*
X1164Y5238D01*
X1166Y5243D01*
X1169Y5247D01*
X1172Y5251D01*
X1176Y5255D01*
X1181Y5257D01*
X1185Y5260D01*
X1190Y5261D01*
X1196Y5263D01*
X1201Y5263D01*
X1476D01*
X1482Y5263D01*
D02*
G37*
D26*
X1781Y3687D02*
D03*
Y3943D02*
D03*
Y4199D02*
D03*
Y3431D02*
D03*
Y3176D02*
D03*
D27*
X571Y4066D02*
D03*
Y3308D02*
D03*
D28*
X14404Y12402D02*
D03*
X13470D02*
D03*
X14344Y9449D02*
D03*
X13411D02*
D03*
D29*
X13780Y8268D02*
D03*
X14484D02*
D03*
X11728Y12402D02*
D03*
X11024D02*
D03*
X9961Y1969D02*
D03*
X9256D02*
D03*
X7878D02*
D03*
X8583D02*
D03*
D30*
X11772Y2673D02*
D03*
Y1969D02*
D03*
X11575Y9882D02*
D03*
Y10587D02*
D03*
D31*
X10608Y1969D02*
D03*
X10967D02*
D03*
X9821Y12402D02*
D03*
X10179D02*
D03*
D32*
X10591Y10453D02*
D03*
Y10020D02*
D03*
D33*
X4134Y2657D02*
D03*
Y1673D02*
D03*
X16102Y8858D02*
D03*
Y7677D02*
D03*
X6457Y8071D02*
D03*
Y12402D02*
D03*
D34*
X1862Y2545D02*
D03*
Y4829D02*
D03*
D35*
X5217Y4331D02*
D03*
X8228Y9252D02*
D03*
D36*
X5217Y6299D02*
D03*
X8228Y11220D02*
D03*
D37*
X1644Y10384D02*
D03*
D38*
X3337D02*
D03*
D39*
X4518D02*
D03*
D40*
X15591Y4724D02*
D03*
D41*
X14591D02*
D03*
X13591D02*
D03*
X11591D02*
D03*
X10591D02*
D03*
X9591D02*
D03*
X8591D02*
D03*
D42*
X669Y2614D02*
D03*
Y4760D02*
D03*
D43*
X1862Y2733D02*
D03*
Y4642D02*
D03*
D44*
X984Y14173D02*
D03*
X18898D02*
D03*
Y984D02*
D03*
X984D02*
D03*
M02*
