G04*
G04 #@! TF.GenerationSoftware,Altium Limited,Altium Designer,21.7.1 (17)*
G04*
G04 Layer_Color=65535*
%FSLAX24Y24*%
%MOIN*%
G70*
G04*
G04 #@! TF.SameCoordinates,156F93F5-282F-4AE9-AA7B-D440BB6AA61E*
G04*
G04*
G04 #@! TF.FilePolarity,Positive*
G04*
G01*
G75*
%ADD10C,0.0079*%
%ADD11C,0.0098*%
%ADD12C,0.0050*%
%ADD13C,0.0059*%
%ADD14C,0.0070*%
%ADD15C,0.0100*%
%ADD16C,0.0197*%
D10*
X7185Y5315D02*
G03*
X7185Y5315I-1969J0D01*
G01*
X16772Y4724D02*
G03*
X16772Y4724I-39J0D01*
G01*
X10197Y10236D02*
G03*
X10197Y10236I-1969J0D01*
G01*
X-197Y9006D02*
Y11762D01*
X3760D01*
Y9006D02*
Y11762D01*
X-197Y9006D02*
X3760D01*
X-441Y5270D02*
X1043D01*
X-441D02*
X399D01*
X-441Y2105D02*
Y5270D01*
Y2105D02*
X1043D01*
X13898Y11984D02*
X13976D01*
X13898Y12819D02*
X13976D01*
X13839Y9032D02*
X13917D01*
X13839Y9866D02*
X13917D01*
X17303Y14685D02*
X17697D01*
Y14488D01*
X17631Y14423D01*
X17500D01*
X17434Y14488D01*
Y14685D01*
Y14554D02*
X17303Y14423D01*
Y14095D02*
Y14226D01*
X17369Y14291D01*
X17500D01*
X17566Y14226D01*
Y14095D01*
X17500Y14029D01*
X17434D01*
Y14291D01*
X17566Y13898D02*
X17303Y13767D01*
X17566Y13636D01*
X17303Y13504D02*
X17369D01*
Y13439D01*
X17303D01*
Y13504D01*
Y13176D02*
Y13045D01*
Y13111D01*
X17697D01*
X17631Y13176D01*
X13622Y7695D02*
X13689Y7762D01*
X13822D01*
X13889Y7695D01*
Y7429D01*
X13822Y7362D01*
X13689D01*
X13622Y7429D01*
Y7695D01*
X14022Y7362D02*
Y7762D01*
X14222D01*
X14289Y7695D01*
Y7562D01*
X14222Y7495D01*
X14022D01*
X14155D02*
X14289Y7362D01*
D11*
X-335Y10384D02*
G03*
X-335Y10384I-49J0D01*
G01*
X2392Y4199D02*
G03*
X2392Y4199I-49J0D01*
G01*
D12*
X16378Y3465D02*
Y7087D01*
X7795D02*
X16378D01*
X7795Y3465D02*
Y7087D01*
Y3465D02*
X16378D01*
X247Y415D02*
Y215D01*
X347D01*
X380Y248D01*
Y382D01*
X347Y415D01*
X247D01*
X547Y215D02*
X480D01*
X447Y248D01*
Y315D01*
X480Y348D01*
X547D01*
X580Y315D01*
Y282D01*
X447D01*
X647Y215D02*
X747D01*
X780Y248D01*
X747Y282D01*
X680D01*
X647Y315D01*
X680Y348D01*
X780D01*
X847Y215D02*
X913D01*
X880D01*
Y348D01*
X847D01*
X1080Y148D02*
X1113D01*
X1147Y182D01*
Y348D01*
X1047D01*
X1013Y315D01*
Y248D01*
X1047Y215D01*
X1147D01*
X1213D02*
Y348D01*
X1313D01*
X1346Y315D01*
Y215D01*
X1513D02*
X1446D01*
X1413Y248D01*
Y315D01*
X1446Y348D01*
X1513D01*
X1546Y315D01*
Y282D01*
X1413D01*
X1746Y415D02*
Y215D01*
X1646D01*
X1613Y248D01*
Y315D01*
X1646Y348D01*
X1746D01*
X2013Y415D02*
Y215D01*
X2113D01*
X2146Y248D01*
Y282D01*
Y315D01*
X2113Y348D01*
X2013D01*
X2213D02*
Y248D01*
X2246Y215D01*
X2346D01*
Y182D01*
X2313Y148D01*
X2280D01*
X2346Y215D02*
Y348D01*
X2613Y415D02*
X2746D01*
X2679D01*
Y215D01*
X2813D02*
Y248D01*
X2846D01*
Y215D01*
X2813D01*
X3113Y382D02*
X3079Y415D01*
X3013D01*
X2979Y382D01*
Y248D01*
X3013Y215D01*
X3079D01*
X3113Y248D01*
Y315D01*
X3046D01*
X3179Y215D02*
Y248D01*
X3213D01*
Y215D01*
X3179D01*
D13*
X14016Y8484D02*
X14252D01*
X14016Y8051D02*
X14252D01*
X11260Y12185D02*
X11496D01*
X11260Y12618D02*
X11496D01*
X9488Y1752D02*
X9724D01*
X9488Y2185D02*
X9724D01*
X8110D02*
X8346D01*
X8110Y1752D02*
X8346D01*
X11988Y2205D02*
Y2441D01*
X11555Y2205D02*
Y2441D01*
X11142Y1890D02*
Y2047D01*
X10354Y12323D02*
Y12480D01*
X11791Y10118D02*
Y10354D01*
X11358Y10118D02*
Y10354D01*
X10433Y10610D02*
X10748D01*
X5212Y7915D02*
Y7521D01*
X5408Y7718D02*
X5015D01*
X8224Y12836D02*
Y12443D01*
X8420Y12639D02*
X8027D01*
D14*
X5582Y2832D02*
X5782D01*
X5682D01*
Y2532D01*
X5882Y2732D02*
Y2532D01*
Y2632D01*
X5932Y2682D01*
X5982Y2732D01*
X6032D01*
X6182Y2532D02*
X6282D01*
X6232D01*
Y2732D01*
X6182D01*
X6432Y2532D02*
Y2732D01*
X6482D01*
X6532Y2682D01*
Y2532D01*
Y2682D01*
X6581Y2732D01*
X6631Y2682D01*
Y2532D01*
X7031D02*
Y2832D01*
X7181D01*
X7231Y2782D01*
Y2682D01*
X7181Y2632D01*
X7031D01*
X7131D02*
X7231Y2532D01*
X7481D02*
X7381D01*
X7331Y2582D01*
Y2682D01*
X7381Y2732D01*
X7481D01*
X7531Y2682D01*
Y2632D01*
X7331D01*
X7631Y2532D02*
X7781D01*
X7831Y2582D01*
X7781Y2632D01*
X7681D01*
X7631Y2682D01*
X7681Y2732D01*
X7831D01*
X7931Y2532D02*
Y2582D01*
X7981D01*
Y2532D01*
X7931D01*
X8581D02*
X8481Y2632D01*
Y2732D01*
X8581Y2832D01*
X8731Y2532D02*
Y2832D01*
X8881D01*
X8931Y2782D01*
Y2682D01*
X8881Y2632D01*
X8731D01*
X8831D02*
X8931Y2532D01*
X9181D02*
Y2832D01*
X9031Y2682D01*
X9231D01*
X9381Y2482D02*
X9431Y2532D01*
Y2582D01*
X9381D01*
Y2532D01*
X9431D01*
X9381Y2482D01*
X9331Y2432D01*
X9631Y2532D02*
Y2832D01*
X9780D01*
X9830Y2782D01*
Y2682D01*
X9780Y2632D01*
X9631D01*
X9730D02*
X9830Y2532D01*
X10130Y2832D02*
X9930D01*
Y2682D01*
X10030Y2732D01*
X10080D01*
X10130Y2682D01*
Y2582D01*
X10080Y2532D01*
X9980D01*
X9930Y2582D01*
X10230Y2532D02*
X10330Y2632D01*
Y2732D01*
X10230Y2832D01*
D15*
X3933Y7633D02*
X3867Y7700D01*
X3733D01*
X3667Y7633D01*
Y7367D01*
X3733Y7300D01*
X3867D01*
X3933Y7367D01*
X4067Y7633D02*
X4133Y7700D01*
X4267D01*
X4333Y7633D01*
Y7567D01*
X4267Y7500D01*
X4200D01*
X4267D01*
X4333Y7433D01*
Y7367D01*
X4267Y7300D01*
X4133D01*
X4067Y7367D01*
X1426Y12133D02*
Y12533D01*
X1626D01*
X1693Y12466D01*
Y12333D01*
X1626Y12266D01*
X1426D01*
X1826Y12133D02*
X1959D01*
X1893D01*
Y12533D01*
X1826Y12466D01*
X17711Y11378D02*
X17794Y11461D01*
Y11628D01*
X17711Y11711D01*
X17627D01*
X17544Y11628D01*
Y11461D01*
X17461Y11378D01*
X17377D01*
X17294Y11461D01*
Y11628D01*
X17377Y11711D01*
X17294Y11128D02*
Y10961D01*
X17377Y10878D01*
X17544D01*
X17627Y10961D01*
Y11128D01*
X17544Y11211D01*
X17377D01*
X17294Y11128D01*
Y10711D02*
Y10545D01*
Y10628D01*
X17794D01*
Y10711D01*
X17627Y10212D02*
Y10045D01*
X17544Y9962D01*
X17294D01*
Y10212D01*
X17377Y10295D01*
X17461Y10212D01*
Y9962D01*
X17627Y9795D02*
X17294D01*
X17461D01*
X17544Y9712D01*
X17627Y9628D01*
Y9545D01*
X17128Y8795D02*
X17627D01*
Y8545D01*
X17544Y8462D01*
X17377D01*
X17294Y8545D01*
Y8795D01*
X17627Y8212D02*
Y8046D01*
X17544Y7962D01*
X17294D01*
Y8212D01*
X17377Y8295D01*
X17461Y8212D01*
Y7962D01*
X17294Y7796D02*
X17627D01*
Y7546D01*
X17544Y7462D01*
X17294D01*
Y7046D02*
Y7212D01*
X17377Y7296D01*
X17544D01*
X17627Y7212D01*
Y7046D01*
X17544Y6963D01*
X17461D01*
Y7296D01*
X17294Y6796D02*
Y6629D01*
Y6713D01*
X17794D01*
Y6796D01*
X17544Y5880D02*
Y5546D01*
X17294Y5380D02*
X17544Y5130D01*
X17794Y5380D01*
Y4130D02*
Y4463D01*
X17544D01*
X17627Y4297D01*
Y4213D01*
X17544Y4130D01*
X17377D01*
X17294Y4213D01*
Y4380D01*
X17377Y4463D01*
X17794Y3964D02*
X17461D01*
X17294Y3797D01*
X17461Y3630D01*
X17794D01*
X10324Y11420D02*
Y11021D01*
X10524D01*
X10591Y11087D01*
Y11354D01*
X10524Y11420D01*
X10324D01*
X10724Y11021D02*
X10857D01*
X10790D01*
Y11420D01*
X10724Y11354D01*
X7501Y981D02*
Y1381D01*
X7701D01*
X7768Y1314D01*
Y1181D01*
X7701Y1114D01*
X7501D01*
X7635D02*
X7768Y981D01*
X8168Y1381D02*
X7901D01*
Y1181D01*
X8035Y1248D01*
X8101D01*
X8168Y1181D01*
Y1048D01*
X8101Y981D01*
X7968D01*
X7901Y1048D01*
X8879Y981D02*
Y1381D01*
X9079D01*
X9146Y1314D01*
Y1181D01*
X9079Y1114D01*
X8879D01*
X9013D02*
X9146Y981D01*
X9479D02*
Y1381D01*
X9279Y1181D01*
X9546D01*
X13350Y7934D02*
X12950D01*
Y8134D01*
X13016Y8201D01*
X13150D01*
X13216Y8134D01*
Y7934D01*
Y8068D02*
X13350Y8201D01*
X13016Y8334D02*
X12950Y8401D01*
Y8534D01*
X13016Y8601D01*
X13083D01*
X13150Y8534D01*
Y8468D01*
Y8534D01*
X13216Y8601D01*
X13283D01*
X13350Y8534D01*
Y8401D01*
X13283Y8334D01*
X11281Y12792D02*
Y13192D01*
X11481D01*
X11548Y13125D01*
Y12992D01*
X11481Y12925D01*
X11281D01*
X11414D02*
X11548Y12792D01*
X11947D02*
X11681D01*
X11947Y13059D01*
Y13125D01*
X11881Y13192D01*
X11747D01*
X11681Y13125D01*
X12292Y2556D02*
Y2956D01*
X12492D01*
X12559Y2889D01*
Y2756D01*
X12492Y2689D01*
X12292D01*
X12426D02*
X12559Y2556D01*
X12692D02*
X12826D01*
X12759D01*
Y2956D01*
X12692Y2889D01*
X7762Y7280D02*
Y7680D01*
X7962D01*
X8028Y7614D01*
Y7480D01*
X7962Y7414D01*
X7762D01*
X8428Y7614D02*
X8362Y7680D01*
X8228D01*
X8162Y7614D01*
Y7547D01*
X8228Y7480D01*
X8362D01*
X8428Y7414D01*
Y7347D01*
X8362Y7280D01*
X8228D01*
X8162Y7347D01*
X8562Y7280D02*
X8695D01*
X8628D01*
Y7680D01*
X8562Y7614D01*
X11235Y1381D02*
Y981D01*
X11502D01*
X11902Y1381D02*
X11635D01*
Y981D01*
X11902D01*
X11635Y1181D02*
X11769D01*
X12035Y1381D02*
Y981D01*
X12235D01*
X12302Y1048D01*
Y1314D01*
X12235Y1381D01*
X12035D01*
X12702Y981D02*
X12435D01*
X12702Y1248D01*
Y1314D01*
X12635Y1381D01*
X12502D01*
X12435Y1314D01*
X8940Y13192D02*
Y12792D01*
X9206D01*
X9606Y13192D02*
X9340D01*
Y12792D01*
X9606D01*
X9340Y12992D02*
X9473D01*
X9740Y13192D02*
Y12792D01*
X9940D01*
X10006Y12859D01*
Y13125D01*
X9940Y13192D01*
X9740D01*
X10139Y12792D02*
X10273D01*
X10206D01*
Y13192D01*
X10139Y13125D01*
X13151Y10633D02*
Y10233D01*
X13418D01*
X13817D02*
X13551D01*
X13817Y10500D01*
Y10566D01*
X13751Y10633D01*
X13618D01*
X13551Y10566D01*
X13277Y13586D02*
Y13186D01*
X13543D01*
X13677D02*
X13810D01*
X13743D01*
Y13586D01*
X13677Y13519D01*
X1850Y5767D02*
X1717D01*
X1784D01*
Y5434D01*
X1717Y5367D01*
X1650D01*
X1584Y5434D01*
X1984Y5367D02*
X2117D01*
X2050D01*
Y5767D01*
X1984Y5701D01*
X11705Y11354D02*
X11638Y11420D01*
X11505D01*
X11438Y11354D01*
Y11087D01*
X11505Y11021D01*
X11638D01*
X11705Y11087D01*
X12105Y11021D02*
X11838D01*
X12105Y11287D01*
Y11354D01*
X12038Y11420D01*
X11905D01*
X11838Y11354D01*
X7441Y12732D02*
X7374Y12798D01*
X7241D01*
X7174Y12732D01*
Y12465D01*
X7241Y12398D01*
X7374D01*
X7441Y12465D01*
X7574Y12398D02*
X7708D01*
X7641D01*
Y12798D01*
X7574Y12732D01*
D16*
X19212Y13386D02*
X18386D01*
Y12973D01*
X18523Y12835D01*
X19074D01*
X19212Y12973D01*
Y13386D01*
X19074Y12008D02*
X19212Y12146D01*
Y12422D01*
X19074Y12559D01*
X18523D01*
X18386Y12422D01*
Y12146D01*
X18523Y12008D01*
X18799Y11733D02*
Y11182D01*
X19212Y10906D02*
X18386D01*
Y10493D01*
X18523Y10355D01*
X19074D01*
X19212Y10493D01*
Y10906D01*
X19074Y9529D02*
X19212Y9667D01*
Y9942D01*
X19074Y10080D01*
X18523D01*
X18386Y9942D01*
Y9667D01*
X18523Y9529D01*
X18937Y8427D02*
X18386D01*
X18661D01*
X18799Y8289D01*
X18937Y8151D01*
Y8014D01*
X18386Y7187D02*
Y7463D01*
X18523Y7600D01*
X18799D01*
X18937Y7463D01*
Y7187D01*
X18799Y7049D01*
X18661D01*
Y7600D01*
X18110Y6498D02*
Y6361D01*
X18248Y6223D01*
X18937D01*
Y6636D01*
X18799Y6774D01*
X18523D01*
X18386Y6636D01*
Y6223D01*
X18937Y5947D02*
X18523D01*
X18386Y5810D01*
Y5396D01*
X18937D01*
X18386Y5121D02*
Y4845D01*
Y4983D01*
X19212D01*
Y5121D01*
X18937Y4294D02*
Y4019D01*
X18799Y3881D01*
X18386D01*
Y4294D01*
X18523Y4432D01*
X18661Y4294D01*
Y3881D01*
X19074Y3468D02*
X18937D01*
Y3606D01*
Y3330D01*
Y3468D01*
X18523D01*
X18386Y3330D01*
Y2779D02*
Y2504D01*
X18523Y2366D01*
X18799D01*
X18937Y2504D01*
Y2779D01*
X18799Y2917D01*
X18523D01*
X18386Y2779D01*
X18937Y2090D02*
X18386D01*
X18661D01*
X18799Y1953D01*
X18937Y1815D01*
Y1677D01*
M02*
