M48
;Layer_Color=9474304
;FILE_FORMAT=2:4
INCH,TZ
;TYPE=PLATED
T3F00S00C0.0280
T4F00S00C0.0354
T5F00S00C0.0394
T6F00S00C0.0402
T7F00S00C0.0984
;TYPE=NON_PLATED
T8F00S00C0.1181
%
T03
X7047Y1969
X10787Y2756
X10591Y9055
X11575
X12559
X15512Y9449
X2756Y3740
X3180Y2750
X11772Y11614
X12559Y12402
T04
X8228Y9252
X5217Y6299
Y4331
X8228Y11220
T05
X8591Y4724
X9591
X10591
X11591
X13591
X14591
X15591
T06
X3337Y10384
X4518
T07
X18898Y984
X984
Y14173
X18898
T08
X1644Y10384
M30
