G04*
G04 #@! TF.GenerationSoftware,Altium Limited,Altium Designer,21.7.1 (17)*
G04*
G04 Layer_Color=8388736*
%FSLAX25Y25*%
%MOIN*%
G70*
G04*
G04 #@! TF.SameCoordinates,6A9AB2AD-3E5E-4466-BBF7-A39550D9A4E3*
G04*
G04*
G04 #@! TF.FilePolarity,Negative*
G04*
G01*
G75*
%ADD18R,0.07690X0.02375*%
%ADD19R,0.10642X0.06410*%
%ADD20R,0.06430X0.09934*%
G04:AMPARAMS|DCode=21|XSize=59.18mil|YSize=37.92mil|CornerRadius=7.74mil|HoleSize=0mil|Usage=FLASHONLY|Rotation=90.000|XOffset=0mil|YOffset=0mil|HoleType=Round|Shape=RoundedRectangle|*
%AMROUNDEDRECTD21*
21,1,0.05918,0.02244,0,0,90.0*
21,1,0.04370,0.03792,0,0,90.0*
1,1,0.01548,0.01122,0.02185*
1,1,0.01548,0.01122,-0.02185*
1,1,0.01548,-0.01122,-0.02185*
1,1,0.01548,-0.01122,0.02185*
%
%ADD21ROUNDEDRECTD21*%
G04:AMPARAMS|DCode=22|XSize=59.18mil|YSize=37.92mil|CornerRadius=7.74mil|HoleSize=0mil|Usage=FLASHONLY|Rotation=180.000|XOffset=0mil|YOffset=0mil|HoleType=Round|Shape=RoundedRectangle|*
%AMROUNDEDRECTD22*
21,1,0.05918,0.02244,0,0,180.0*
21,1,0.04370,0.03792,0,0,180.0*
1,1,0.01548,-0.02185,0.01122*
1,1,0.01548,0.02185,0.01122*
1,1,0.01548,0.02185,-0.01122*
1,1,0.01548,-0.02185,-0.01122*
%
%ADD22ROUNDEDRECTD22*%
G04:AMPARAMS|DCode=23|XSize=29.65mil|YSize=27.69mil|CornerRadius=6.46mil|HoleSize=0mil|Usage=FLASHONLY|Rotation=270.000|XOffset=0mil|YOffset=0mil|HoleType=Round|Shape=RoundedRectangle|*
%AMROUNDEDRECTD23*
21,1,0.02965,0.01476,0,0,270.0*
21,1,0.01673,0.02769,0,0,270.0*
1,1,0.01292,-0.00738,-0.00837*
1,1,0.01292,-0.00738,0.00837*
1,1,0.01292,0.00738,0.00837*
1,1,0.01292,0.00738,-0.00837*
%
%ADD23ROUNDEDRECTD23*%
G04:AMPARAMS|DCode=24|XSize=23.75mil|YSize=43.43mil|CornerRadius=5.97mil|HoleSize=0mil|Usage=FLASHONLY|Rotation=270.000|XOffset=0mil|YOffset=0mil|HoleType=Round|Shape=RoundedRectangle|*
%AMROUNDEDRECTD24*
21,1,0.02375,0.03150,0,0,270.0*
21,1,0.01181,0.04343,0,0,270.0*
1,1,0.01194,-0.01575,-0.00591*
1,1,0.01194,-0.01575,0.00591*
1,1,0.01194,0.01575,0.00591*
1,1,0.01194,0.01575,-0.00591*
%
%ADD24ROUNDEDRECTD24*%
%ADD25C,0.06800*%
%ADD26R,0.06548X0.08674*%
%ADD27R,0.06737X0.06737*%
%ADD28C,0.06737*%
%ADD29O,0.07493X0.05524*%
%ADD30O,0.06312X0.04737*%
%ADD31R,0.11430X0.11430*%
%ADD32C,0.11430*%
%ADD33C,0.13398*%
%ADD34R,0.06312X0.06312*%
%ADD35C,0.06312*%
%ADD36C,0.12611*%
%ADD37C,0.05800*%
G36*
X15702Y28449D02*
X15753Y28438D01*
X15803Y28422D01*
X15850Y28398D01*
X15894Y28369D01*
X15933Y28335D01*
X15968Y28295D01*
X15997Y28252D01*
X16020Y28205D01*
X16037Y28155D01*
X16047Y28104D01*
X16050Y28051D01*
Y20866D01*
X16047Y20814D01*
X16037Y20762D01*
X16020Y20713D01*
X15997Y20666D01*
X15968Y20622D01*
X15933Y20583D01*
X15894Y20548D01*
X15850Y20519D01*
X15803Y20496D01*
X15753Y20479D01*
X15702Y20469D01*
X15650Y20465D01*
X12894D01*
X12841Y20469D01*
X12790Y20479D01*
X12740Y20496D01*
X12693Y20519D01*
X12650Y20548D01*
X12610Y20583D01*
X12576Y20622D01*
X12547Y20666D01*
X12523Y20713D01*
X12506Y20762D01*
X12496Y20814D01*
X12493Y20866D01*
Y22532D01*
X4823D01*
X4812Y22533D01*
X4802Y22533D01*
X4649Y22541D01*
X4638Y22542D01*
X4627Y22542D01*
X4478Y22558D01*
X4476Y22558D01*
X4474Y22558D01*
X4451Y22563D01*
X4426Y22567D01*
X4424Y22567D01*
X4423Y22568D01*
X4352Y22585D01*
X4342Y22589D01*
X4332Y22591D01*
X4261Y22613D01*
X4261Y22613D01*
X4119Y22656D01*
X4112Y22659D01*
X4105Y22660D01*
X4088Y22668D01*
X4070Y22675D01*
X4064Y22678D01*
X4057Y22681D01*
X3907Y22756D01*
X3894Y22763D01*
X3880Y22770D01*
X3743Y22853D01*
X3726Y22865D01*
X3708Y22876D01*
X3582Y22971D01*
X3571Y22980D01*
X3560Y22988D01*
X3442Y23091D01*
X3441Y23092D01*
X3439Y23093D01*
X3422Y23110D01*
X3405Y23128D01*
X3404Y23129D01*
X3402Y23130D01*
X3296Y23253D01*
X3288Y23263D01*
X3279Y23274D01*
X3181Y23404D01*
X3179Y23405D01*
X3178Y23407D01*
X3165Y23427D01*
X3152Y23447D01*
X3151Y23449D01*
X3150Y23451D01*
X3071Y23593D01*
X3066Y23603D01*
X3061Y23612D01*
X2990Y23758D01*
X2989Y23761D01*
X2987Y23763D01*
X2979Y23785D01*
X2970Y23806D01*
X2969Y23809D01*
X2968Y23812D01*
X2917Y23973D01*
X2912Y23996D01*
X2906Y24018D01*
X2882Y24140D01*
X2881Y24152D01*
X2878Y24163D01*
X2859Y24308D01*
X2857Y24325D01*
X2856Y24341D01*
X2848Y24486D01*
X2848Y24497D01*
X2847Y24508D01*
Y26476D01*
X2848Y26486D01*
X2848Y26495D01*
X2856Y26664D01*
X2858Y26686D01*
X2860Y26708D01*
X2885Y26871D01*
X2890Y26891D01*
X2894Y26912D01*
X2935Y27068D01*
X2942Y27088D01*
X2949Y27108D01*
X3008Y27262D01*
X3018Y27284D01*
X3028Y27306D01*
X3095Y27432D01*
X3099Y27439D01*
X3102Y27445D01*
X3173Y27567D01*
X3186Y27587D01*
X3200Y27608D01*
X3296Y27735D01*
X3297Y27737D01*
X3298Y27738D01*
X3314Y27757D01*
X3330Y27775D01*
X3332Y27776D01*
X3333Y27777D01*
X3437Y27882D01*
X3443Y27887D01*
X3448Y27892D01*
X3558Y27994D01*
X3559Y27995D01*
X3560Y27996D01*
X3579Y28012D01*
X3599Y28028D01*
X3600Y28028D01*
X3601Y28029D01*
X3719Y28112D01*
X3728Y28117D01*
X3735Y28123D01*
X3873Y28209D01*
X3875Y28211D01*
X3877Y28212D01*
X3898Y28223D01*
X3919Y28234D01*
X3922Y28235D01*
X3924Y28236D01*
X4065Y28299D01*
X4077Y28304D01*
X4088Y28308D01*
X4214Y28356D01*
X4228Y28360D01*
X4241Y28365D01*
X4308Y28385D01*
X4319Y28387D01*
X4329Y28390D01*
X4396Y28406D01*
X4403Y28407D01*
X4410Y28409D01*
X4488Y28425D01*
X4490Y28425D01*
X4492Y28425D01*
X4575Y28441D01*
X4577Y28441D01*
X4579Y28442D01*
X4603Y28444D01*
X4627Y28447D01*
X4629Y28447D01*
X4631Y28448D01*
X4718Y28452D01*
X4727Y28451D01*
X4736Y28452D01*
X15650D01*
X15702Y28449D01*
D02*
G37*
G36*
X15702Y51972D02*
X15753Y51962D01*
X15803Y51945D01*
X15850Y51922D01*
X15894Y51893D01*
X15933Y51858D01*
X15968Y51819D01*
X15997Y51775D01*
X16020Y51728D01*
X16037Y51679D01*
X16047Y51627D01*
X16050Y51575D01*
Y44390D01*
X16047Y44337D01*
X16037Y44286D01*
X16020Y44236D01*
X15997Y44189D01*
X15968Y44146D01*
X15933Y44106D01*
X15894Y44072D01*
X15850Y44043D01*
X15803Y44019D01*
X15753Y44003D01*
X15702Y43992D01*
X15650Y43989D01*
X4736D01*
X4727Y43990D01*
X4718Y43989D01*
X4631Y43993D01*
X4629Y43993D01*
X4627Y43993D01*
X4603Y43996D01*
X4579Y43999D01*
X4577Y44000D01*
X4575Y44000D01*
X4492Y44016D01*
X4490Y44016D01*
X4488Y44016D01*
X4410Y44032D01*
X4403Y44034D01*
X4396Y44035D01*
X4329Y44051D01*
X4319Y44054D01*
X4308Y44056D01*
X4241Y44076D01*
X4228Y44081D01*
X4214Y44085D01*
X4088Y44133D01*
X4077Y44137D01*
X4065Y44142D01*
X3924Y44205D01*
X3922Y44206D01*
X3919Y44207D01*
X3898Y44218D01*
X3877Y44229D01*
X3875Y44230D01*
X3873Y44232D01*
X3735Y44318D01*
X3728Y44324D01*
X3719Y44329D01*
X3601Y44412D01*
X3600Y44413D01*
X3599Y44413D01*
X3579Y44429D01*
X3560Y44445D01*
X3559Y44445D01*
X3558Y44446D01*
X3448Y44549D01*
X3443Y44554D01*
X3437Y44559D01*
X3333Y44663D01*
X3332Y44665D01*
X3330Y44666D01*
X3314Y44684D01*
X3298Y44703D01*
X3297Y44704D01*
X3296Y44706D01*
X3200Y44833D01*
X3186Y44854D01*
X3173Y44873D01*
X3102Y44996D01*
X3099Y45002D01*
X3095Y45009D01*
X3028Y45135D01*
X3018Y45157D01*
X3008Y45179D01*
X2949Y45333D01*
X2942Y45353D01*
X2935Y45373D01*
X2894Y45529D01*
X2890Y45549D01*
X2885Y45570D01*
X2860Y45733D01*
X2858Y45755D01*
X2856Y45777D01*
X2848Y45946D01*
X2848Y45955D01*
X2847Y45965D01*
Y47933D01*
X2848Y47944D01*
X2848Y47955D01*
X2856Y48100D01*
X2857Y48116D01*
X2859Y48132D01*
X2878Y48278D01*
X2881Y48289D01*
X2882Y48301D01*
X2906Y48423D01*
X2912Y48445D01*
X2917Y48468D01*
X2968Y48629D01*
X2969Y48632D01*
X2970Y48635D01*
X2979Y48656D01*
X2987Y48678D01*
X2989Y48680D01*
X2990Y48683D01*
X3061Y48829D01*
X3066Y48838D01*
X3071Y48848D01*
X3150Y48990D01*
X3151Y48992D01*
X3152Y48994D01*
X3165Y49014D01*
X3178Y49034D01*
X3179Y49036D01*
X3181Y49037D01*
X3279Y49167D01*
X3288Y49178D01*
X3296Y49189D01*
X3402Y49310D01*
X3404Y49312D01*
X3405Y49313D01*
X3422Y49330D01*
X3439Y49348D01*
X3441Y49349D01*
X3442Y49350D01*
X3560Y49452D01*
X3571Y49461D01*
X3582Y49470D01*
X3708Y49565D01*
X3726Y49576D01*
X3743Y49588D01*
X3880Y49670D01*
X3894Y49678D01*
X3907Y49685D01*
X4057Y49760D01*
X4064Y49763D01*
X4070Y49766D01*
X4088Y49773D01*
X4105Y49780D01*
X4112Y49782D01*
X4119Y49785D01*
X4261Y49828D01*
X4261Y49828D01*
X4332Y49850D01*
X4342Y49852D01*
X4352Y49856D01*
X4423Y49873D01*
X4424Y49874D01*
X4426Y49874D01*
X4451Y49878D01*
X4474Y49883D01*
X4476Y49883D01*
X4478Y49883D01*
X4627Y49899D01*
X4638Y49899D01*
X4649Y49900D01*
X4802Y49908D01*
X4812Y49908D01*
X4823Y49909D01*
X12493D01*
Y51575D01*
X12496Y51627D01*
X12506Y51679D01*
X12523Y51728D01*
X12547Y51775D01*
X12576Y51819D01*
X12610Y51858D01*
X12650Y51893D01*
X12693Y51922D01*
X12740Y51945D01*
X12790Y51962D01*
X12841Y51972D01*
X12894Y51976D01*
X15650D01*
X15702Y51972D01*
D02*
G37*
D18*
X18701Y36220D02*
D03*
Y38780D02*
D03*
Y41339D02*
D03*
Y33661D02*
D03*
Y31102D02*
D03*
D19*
X6594Y40010D02*
D03*
Y32431D02*
D03*
D20*
X144035Y124016D02*
D03*
X134705D02*
D03*
X143445Y94488D02*
D03*
X134114D02*
D03*
D21*
X137795Y82677D02*
D03*
X144843D02*
D03*
X117283Y124016D02*
D03*
X110236D02*
D03*
X99606Y19685D02*
D03*
X92559D02*
D03*
X78780D02*
D03*
X85827D02*
D03*
D22*
X117717Y26732D02*
D03*
Y19685D02*
D03*
X115748Y98819D02*
D03*
Y105866D02*
D03*
D23*
X106083Y19685D02*
D03*
X109665D02*
D03*
X98209Y124016D02*
D03*
X101791D02*
D03*
D24*
X105905Y104528D02*
D03*
Y100197D02*
D03*
D25*
X41043Y45177D02*
D03*
Y27461D02*
D03*
X161024Y88583D02*
D03*
Y76772D02*
D03*
X64567Y80709D02*
D03*
Y124016D02*
D03*
D26*
X19508Y24802D02*
D03*
Y47637D02*
D03*
D27*
X155905Y47244D02*
D03*
D28*
X145905D02*
D03*
X135906D02*
D03*
X115905D02*
D03*
X105905D02*
D03*
X95906D02*
D03*
X85905D02*
D03*
D29*
X7579Y25492D02*
D03*
Y46949D02*
D03*
D30*
X19508Y26673D02*
D03*
Y45768D02*
D03*
D31*
X52165Y88189D02*
D03*
D32*
Y104724D02*
D03*
D33*
X35630Y122441D02*
D03*
Y70472D02*
D03*
D34*
X82284Y112205D02*
D03*
D35*
Y92520D02*
D03*
D36*
X9843Y141732D02*
D03*
X188976D02*
D03*
Y9843D02*
D03*
X9843D02*
D03*
D37*
X105905Y90551D02*
D03*
X155118Y94488D02*
D03*
X117717Y116142D02*
D03*
X115748Y90551D02*
D03*
X125591Y124016D02*
D03*
Y90551D02*
D03*
X107874Y27559D02*
D03*
X29232Y27461D02*
D03*
Y45177D02*
D03*
X70472Y19685D02*
D03*
M02*
