G04*
G04 #@! TF.GenerationSoftware,Altium Limited,Altium Designer,21.7.1 (17)*
G04*
G04 Layer_Physical_Order=2*
G04 Layer_Color=16711680*
%FSLAX25Y25*%
%MOIN*%
G70*
G04*
G04 #@! TF.SameCoordinates,6A9AB2AD-3E5E-4466-BBF7-A39550D9A4E3*
G04*
G04*
G04 #@! TF.FilePolarity,Positive*
G04*
G01*
G75*
%ADD17C,0.01968*%
%ADD48R,0.05937X0.05937*%
%ADD49C,0.05937*%
%ADD50O,0.06693X0.04724*%
%ADD51O,0.05512X0.03937*%
%ADD52R,0.10630X0.10630*%
%ADD53C,0.10630*%
%ADD54C,0.12598*%
%ADD55R,0.05512X0.05512*%
%ADD56C,0.05512*%
%ADD57C,0.11811*%
%ADD58C,0.05000*%
G36*
X129528Y5906D02*
X15792D01*
X15556Y6346D01*
X15774Y6672D01*
X16278Y7890D01*
X16535Y9183D01*
Y10502D01*
X16278Y11795D01*
X15774Y13013D01*
X15041Y14109D01*
X14109Y15041D01*
X13013Y15774D01*
X11795Y16278D01*
X10502Y16535D01*
X9183D01*
X7890Y16278D01*
X6672Y15774D01*
X5576Y15041D01*
X4644Y14109D01*
X3911Y13013D01*
X3407Y11795D01*
X3150Y10502D01*
Y9183D01*
X3407Y7890D01*
X3911Y6672D01*
X4129Y6346D01*
X3893Y5906D01*
X1575D01*
Y70866D01*
X28543D01*
Y69775D01*
X28816Y68405D01*
X29350Y67116D01*
X30125Y65955D01*
X31113Y64968D01*
X32273Y64192D01*
X33563Y63658D01*
X34932Y63386D01*
X36328D01*
X37697Y63658D01*
X38987Y64192D01*
X40147Y64968D01*
X41135Y65955D01*
X41910Y67116D01*
X42444Y68405D01*
X42717Y69775D01*
Y70866D01*
X129528D01*
Y5906D01*
D02*
G37*
G36*
Y91313D02*
X129028Y91247D01*
X128852Y91902D01*
X128391Y92700D01*
X127740Y93352D01*
X126942Y93813D01*
X126091Y94041D01*
Y90551D01*
Y87062D01*
X126942Y87290D01*
X127740Y87751D01*
X128391Y88402D01*
X128852Y89200D01*
X129028Y89855D01*
X129528Y89789D01*
Y74803D01*
X41259D01*
X41135Y74990D01*
X40147Y75977D01*
X38987Y76753D01*
X37697Y77287D01*
X36328Y77559D01*
X34932D01*
X33563Y77287D01*
X32273Y76753D01*
X31113Y75977D01*
X30125Y74990D01*
X30001Y74803D01*
X1575D01*
Y143701D01*
X2900D01*
X3311Y143201D01*
X3150Y142392D01*
Y141073D01*
X3407Y139780D01*
X3911Y138562D01*
X4644Y137466D01*
X5576Y136534D01*
X6672Y135801D01*
X7890Y135297D01*
X9183Y135039D01*
X10502D01*
X11795Y135297D01*
X13013Y135801D01*
X14109Y136534D01*
X15041Y137466D01*
X15774Y138562D01*
X16278Y139780D01*
X16535Y141073D01*
Y142392D01*
X16374Y143201D01*
X16785Y143701D01*
X129528D01*
Y91313D01*
D02*
G37*
%LPC*%
G36*
X96428Y51213D02*
X96406D01*
Y47744D01*
X99874D01*
Y47767D01*
X99604Y48776D01*
X99081Y49681D01*
X98342Y50420D01*
X97437Y50942D01*
X96428Y51213D01*
D02*
G37*
G36*
X95406D02*
X95383D01*
X94374Y50942D01*
X93469Y50420D01*
X92730Y49681D01*
X92207Y48776D01*
X91937Y47767D01*
Y47744D01*
X95406D01*
Y51213D01*
D02*
G37*
G36*
X8563Y50126D02*
X6594D01*
X5772Y50017D01*
X5006Y49700D01*
X4348Y49195D01*
X3843Y48537D01*
X3526Y47771D01*
X3418Y46949D01*
X3526Y46127D01*
X3843Y45360D01*
X4348Y44703D01*
X5006Y44198D01*
X5772Y43880D01*
X6594Y43772D01*
X8563D01*
X9385Y43880D01*
X10151Y44198D01*
X10809Y44703D01*
X11314Y45360D01*
X11631Y46127D01*
X11740Y46949D01*
X11631Y47771D01*
X11314Y48537D01*
X10809Y49195D01*
X10151Y49700D01*
X9385Y50017D01*
X8563Y50126D01*
D02*
G37*
G36*
X116400Y51000D02*
X115411D01*
X114456Y50744D01*
X113599Y50250D01*
X112900Y49550D01*
X112406Y48694D01*
X112150Y47739D01*
Y46750D01*
X112406Y45794D01*
X112900Y44938D01*
X113599Y44239D01*
X114456Y43744D01*
X115411Y43488D01*
X116400D01*
X117355Y43744D01*
X118212Y44239D01*
X118911Y44938D01*
X119405Y45794D01*
X119661Y46750D01*
Y47739D01*
X119405Y48694D01*
X118911Y49550D01*
X118212Y50250D01*
X117355Y50744D01*
X116400Y51000D01*
D02*
G37*
G36*
X106400D02*
X105411D01*
X104456Y50744D01*
X103599Y50250D01*
X102900Y49550D01*
X102406Y48694D01*
X102150Y47739D01*
Y46750D01*
X102406Y45794D01*
X102900Y44938D01*
X103599Y44239D01*
X104456Y43744D01*
X105411Y43488D01*
X106400D01*
X107355Y43744D01*
X108212Y44239D01*
X108911Y44938D01*
X109405Y45794D01*
X109661Y46750D01*
Y47739D01*
X109405Y48694D01*
X108911Y49550D01*
X108212Y50250D01*
X107355Y50744D01*
X106400Y51000D01*
D02*
G37*
G36*
X86400D02*
X85411D01*
X84456Y50744D01*
X83599Y50250D01*
X82900Y49550D01*
X82406Y48694D01*
X82150Y47739D01*
Y46750D01*
X82406Y45794D01*
X82900Y44938D01*
X83599Y44239D01*
X84456Y43744D01*
X85411Y43488D01*
X86400D01*
X87355Y43744D01*
X88212Y44239D01*
X88911Y44938D01*
X89405Y45794D01*
X89661Y46750D01*
Y47739D01*
X89405Y48694D01*
X88911Y49550D01*
X88212Y50250D01*
X87355Y50744D01*
X86400Y51000D01*
D02*
G37*
G36*
X99874Y46744D02*
X96406D01*
Y43276D01*
X96428D01*
X97437Y43546D01*
X98342Y44069D01*
X99081Y44807D01*
X99604Y45712D01*
X99874Y46722D01*
Y46744D01*
D02*
G37*
G36*
X95406D02*
X91937D01*
Y46722D01*
X92207Y45712D01*
X92730Y44807D01*
X93469Y44069D01*
X94374Y43546D01*
X95383Y43276D01*
X95406D01*
Y46744D01*
D02*
G37*
G36*
X20295Y48547D02*
X18721D01*
X18001Y48453D01*
X17331Y48175D01*
X16755Y47733D01*
X16313Y47157D01*
X16036Y46487D01*
X15941Y45768D01*
X16036Y45048D01*
X16313Y44378D01*
X16755Y43802D01*
X17331Y43360D01*
X18001Y43083D01*
X18721Y42988D01*
X20295D01*
X21015Y43083D01*
X21685Y43360D01*
X22261Y43802D01*
X22703Y44378D01*
X22980Y45048D01*
X23075Y45768D01*
X22980Y46487D01*
X22703Y47157D01*
X22261Y47733D01*
X21685Y48175D01*
X21015Y48453D01*
X20295Y48547D01*
D02*
G37*
G36*
X29665Y48465D02*
X28800D01*
X27963Y48241D01*
X27214Y47808D01*
X26602Y47196D01*
X26169Y46446D01*
X25945Y45610D01*
Y44744D01*
X26169Y43908D01*
X26602Y43159D01*
X27214Y42547D01*
X27963Y42114D01*
X28800Y41890D01*
X29665D01*
X30501Y42114D01*
X31251Y42547D01*
X31863Y43159D01*
X32296Y43908D01*
X32520Y44744D01*
Y45610D01*
X32296Y46446D01*
X31863Y47196D01*
X31251Y47808D01*
X30501Y48241D01*
X29665Y48465D01*
D02*
G37*
G36*
X108374Y31049D02*
Y28059D01*
X111363D01*
X111135Y28910D01*
X110675Y29708D01*
X110023Y30360D01*
X109225Y30821D01*
X108374Y31049D01*
D02*
G37*
G36*
X107374D02*
X106523Y30821D01*
X105725Y30360D01*
X105073Y29708D01*
X104613Y28910D01*
X104385Y28059D01*
X107374D01*
Y31049D01*
D02*
G37*
G36*
X29732Y30950D02*
Y27961D01*
X32722D01*
X32494Y28812D01*
X32033Y29610D01*
X31381Y30261D01*
X30583Y30722D01*
X29732Y30950D01*
D02*
G37*
G36*
X28732D02*
X27881Y30722D01*
X27083Y30261D01*
X26432Y29610D01*
X25971Y28812D01*
X25743Y27961D01*
X28732D01*
Y30950D01*
D02*
G37*
G36*
X111363Y27059D02*
X108374D01*
Y24070D01*
X109225Y24298D01*
X110023Y24758D01*
X110675Y25410D01*
X111135Y26208D01*
X111363Y27059D01*
D02*
G37*
G36*
X107374D02*
X104385D01*
X104613Y26208D01*
X105073Y25410D01*
X105725Y24758D01*
X106523Y24298D01*
X107374Y24070D01*
Y27059D01*
D02*
G37*
G36*
X32722Y26961D02*
X29732D01*
Y23971D01*
X30583Y24199D01*
X31381Y24660D01*
X32033Y25312D01*
X32494Y26110D01*
X32722Y26961D01*
D02*
G37*
G36*
X28732D02*
X25743D01*
X25971Y26110D01*
X26432Y25312D01*
X27083Y24660D01*
X27881Y24199D01*
X28732Y23971D01*
Y26961D01*
D02*
G37*
G36*
X20295Y29453D02*
X18721D01*
X18001Y29358D01*
X17331Y29081D01*
X16755Y28639D01*
X16313Y28063D01*
X16036Y27393D01*
X15941Y26673D01*
X16036Y25954D01*
X16313Y25283D01*
X16755Y24708D01*
X17331Y24266D01*
X18001Y23988D01*
X18721Y23893D01*
X20295D01*
X21015Y23988D01*
X21685Y24266D01*
X22261Y24708D01*
X22703Y25283D01*
X22980Y25954D01*
X23075Y26673D01*
X22980Y27393D01*
X22703Y28063D01*
X22261Y28639D01*
X21685Y29081D01*
X21015Y29358D01*
X20295Y29453D01*
D02*
G37*
G36*
X8563Y28669D02*
X6594D01*
X5772Y28561D01*
X5006Y28243D01*
X4348Y27738D01*
X3843Y27081D01*
X3526Y26314D01*
X3418Y25492D01*
X3526Y24670D01*
X3843Y23904D01*
X4348Y23246D01*
X5006Y22741D01*
X5772Y22424D01*
X6594Y22315D01*
X8563D01*
X9385Y22424D01*
X10151Y22741D01*
X10809Y23246D01*
X11314Y23904D01*
X11631Y24670D01*
X11740Y25492D01*
X11631Y26314D01*
X11314Y27081D01*
X10809Y27738D01*
X10151Y28243D01*
X9385Y28561D01*
X8563Y28669D01*
D02*
G37*
G36*
X70972Y23175D02*
Y20185D01*
X73962D01*
X73734Y21036D01*
X73273Y21834D01*
X72622Y22486D01*
X71823Y22946D01*
X70972Y23175D01*
D02*
G37*
G36*
X69972D02*
X69121Y22946D01*
X68323Y22486D01*
X67672Y21834D01*
X67211Y21036D01*
X66983Y20185D01*
X69972D01*
Y23175D01*
D02*
G37*
G36*
X73962Y19185D02*
X70972D01*
Y16196D01*
X71823Y16424D01*
X72622Y16884D01*
X73273Y17536D01*
X73734Y18334D01*
X73962Y19185D01*
D02*
G37*
G36*
X69972D02*
X66983D01*
X67211Y18334D01*
X67672Y17536D01*
X68323Y16884D01*
X69121Y16424D01*
X69972Y16196D01*
Y19185D01*
D02*
G37*
G36*
X126023Y127303D02*
X125158D01*
X124322Y127079D01*
X123572Y126646D01*
X122960Y126034D01*
X122527Y125285D01*
X122303Y124449D01*
Y123583D01*
X122527Y122747D01*
X122960Y121997D01*
X123572Y121385D01*
X124322Y120952D01*
X125158Y120728D01*
X126023D01*
X126859Y120952D01*
X127609Y121385D01*
X128221Y121997D01*
X128654Y122747D01*
X128878Y123583D01*
Y124449D01*
X128654Y125285D01*
X128221Y126034D01*
X127609Y126646D01*
X126859Y127079D01*
X126023Y127303D01*
D02*
G37*
G36*
X118217Y119631D02*
Y116642D01*
X121206D01*
X120978Y117493D01*
X120517Y118291D01*
X119866Y118942D01*
X119068Y119403D01*
X118217Y119631D01*
D02*
G37*
G36*
X117217D02*
X116366Y119403D01*
X115568Y118942D01*
X114916Y118291D01*
X114455Y117493D01*
X114227Y116642D01*
X117217D01*
Y119631D01*
D02*
G37*
G36*
X36328Y129527D02*
X34932D01*
X33563Y129255D01*
X32273Y128721D01*
X31113Y127945D01*
X30125Y126958D01*
X29350Y125798D01*
X28816Y124508D01*
X28543Y123139D01*
Y121743D01*
X28816Y120374D01*
X29350Y119084D01*
X30125Y117923D01*
X31113Y116936D01*
X32273Y116161D01*
X33563Y115627D01*
X34932Y115354D01*
X36328D01*
X37697Y115627D01*
X38987Y116161D01*
X40147Y116936D01*
X41135Y117923D01*
X41910Y119084D01*
X42444Y120374D01*
X42717Y121743D01*
Y123139D01*
X42444Y124508D01*
X41910Y125798D01*
X41135Y126958D01*
X40147Y127945D01*
X38987Y128721D01*
X37697Y129255D01*
X36328Y129527D01*
D02*
G37*
G36*
X121206Y115642D02*
X118217D01*
Y112652D01*
X119068Y112880D01*
X119866Y113341D01*
X120517Y113993D01*
X120978Y114791D01*
X121206Y115642D01*
D02*
G37*
G36*
X117217D02*
X114227D01*
X114455Y114791D01*
X114916Y113993D01*
X115568Y113341D01*
X116366Y112880D01*
X117217Y112652D01*
Y115642D01*
D02*
G37*
G36*
X85827Y115748D02*
X78740D01*
Y108661D01*
X85827D01*
Y115748D01*
D02*
G37*
G36*
X52766Y110827D02*
X51564D01*
X50385Y110592D01*
X49275Y110132D01*
X48275Y109464D01*
X47425Y108614D01*
X46758Y107615D01*
X46297Y106504D01*
X46063Y105325D01*
Y104123D01*
X46297Y102944D01*
X46758Y101834D01*
X47425Y100834D01*
X48275Y99984D01*
X49275Y99317D01*
X50385Y98857D01*
X51564Y98622D01*
X52766D01*
X53945Y98857D01*
X55056Y99317D01*
X56055Y99984D01*
X56905Y100834D01*
X57573Y101834D01*
X58033Y102944D01*
X58268Y104123D01*
Y105325D01*
X58033Y106504D01*
X57573Y107615D01*
X56905Y108614D01*
X56055Y109464D01*
X55056Y110132D01*
X53945Y110592D01*
X52766Y110827D01*
D02*
G37*
G36*
X82784Y96274D02*
Y93020D01*
X86038D01*
X85783Y93969D01*
X85289Y94826D01*
X84590Y95525D01*
X83733Y96020D01*
X82784Y96274D01*
D02*
G37*
G36*
X81783D02*
X80834Y96020D01*
X79977Y95525D01*
X79278Y94826D01*
X78784Y93969D01*
X78529Y93020D01*
X81783D01*
Y96274D01*
D02*
G37*
G36*
X125091Y94041D02*
X124240Y93813D01*
X123442Y93352D01*
X122790Y92700D01*
X122329Y91902D01*
X122101Y91051D01*
X125091D01*
Y94041D01*
D02*
G37*
G36*
X116248D02*
Y91051D01*
X119237D01*
X119009Y91902D01*
X118549Y92700D01*
X117897Y93352D01*
X117099Y93813D01*
X116248Y94041D01*
D02*
G37*
G36*
X115248D02*
X114397Y93813D01*
X113599Y93352D01*
X112947Y92700D01*
X112487Y91902D01*
X112259Y91051D01*
X115248D01*
Y94041D01*
D02*
G37*
G36*
X106405D02*
Y91051D01*
X109395D01*
X109167Y91902D01*
X108706Y92700D01*
X108055Y93352D01*
X107256Y93813D01*
X106405Y94041D01*
D02*
G37*
G36*
X105405D02*
X104555Y93813D01*
X103756Y93352D01*
X103105Y92700D01*
X102644Y91902D01*
X102416Y91051D01*
X105405D01*
Y94041D01*
D02*
G37*
G36*
X86038Y92020D02*
X82784D01*
Y88765D01*
X83733Y89020D01*
X84590Y89514D01*
X85289Y90214D01*
X85783Y91070D01*
X86038Y92020D01*
D02*
G37*
G36*
X81783D02*
X78529D01*
X78784Y91070D01*
X79278Y90214D01*
X79977Y89514D01*
X80834Y89020D01*
X81783Y88765D01*
Y92020D01*
D02*
G37*
G36*
X58480Y94504D02*
X52665D01*
Y88689D01*
X58480D01*
Y94504D01*
D02*
G37*
G36*
X51665D02*
X45850D01*
Y88689D01*
X51665D01*
Y94504D01*
D02*
G37*
G36*
X125091Y90051D02*
X122101D01*
X122329Y89200D01*
X122790Y88402D01*
X123442Y87751D01*
X124240Y87290D01*
X125091Y87062D01*
Y90051D01*
D02*
G37*
G36*
X119237D02*
X116248D01*
Y87062D01*
X117099Y87290D01*
X117897Y87751D01*
X118549Y88402D01*
X119009Y89200D01*
X119237Y90051D01*
D02*
G37*
G36*
X115248D02*
X112259D01*
X112487Y89200D01*
X112947Y88402D01*
X113599Y87751D01*
X114397Y87290D01*
X115248Y87062D01*
Y90051D01*
D02*
G37*
G36*
X109395D02*
X106405D01*
Y87062D01*
X107256Y87290D01*
X108055Y87751D01*
X108706Y88402D01*
X109167Y89200D01*
X109395Y90051D01*
D02*
G37*
G36*
X105405D02*
X102416D01*
X102644Y89200D01*
X103105Y88402D01*
X103756Y87751D01*
X104555Y87290D01*
X105405Y87062D01*
Y90051D01*
D02*
G37*
G36*
X58480Y87689D02*
X52665D01*
Y81874D01*
X58480D01*
Y87689D01*
D02*
G37*
G36*
X51665D02*
X45850D01*
Y81874D01*
X51665D01*
Y87689D01*
D02*
G37*
%LPD*%
D17*
X145905Y47244D02*
X155118Y56457D01*
Y94488D01*
D48*
X155905Y47244D02*
D03*
D49*
X145905D02*
D03*
X135906D02*
D03*
X115905D02*
D03*
X105905D02*
D03*
X95906D02*
D03*
X85905D02*
D03*
D50*
X7579Y25492D02*
D03*
Y46949D02*
D03*
D51*
X19508Y26673D02*
D03*
Y45768D02*
D03*
D52*
X52165Y88189D02*
D03*
D53*
Y104724D02*
D03*
D54*
X35630Y122441D02*
D03*
Y70472D02*
D03*
D55*
X82284Y112205D02*
D03*
D56*
Y92520D02*
D03*
D57*
X9843Y141732D02*
D03*
X188976D02*
D03*
Y9843D02*
D03*
X9843D02*
D03*
D58*
X105905Y90551D02*
D03*
X155118Y94488D02*
D03*
X117717Y116142D02*
D03*
X115748Y90551D02*
D03*
X125591Y124016D02*
D03*
Y90551D02*
D03*
X107874Y27559D02*
D03*
X29232Y27461D02*
D03*
Y45177D02*
D03*
X70472Y19685D02*
D03*
M02*
